<?xml version="1.0" encoding="UTF-8"?>
<!DOCTYPE svg PUBLIC "-//W3C//DTD SVG 1.1//EN" "http://www.w3.org/Graphics/SVG/1.1/DTD/svg11.dtd">
<!-- Creator: CorelDRAW -->
<svg xmlns="http://www.w3.org/2000/svg" xml:space="preserve" width="5.25841in" height="2.62545in" version="1.1" style="shape-rendering:geometricPrecision; text-rendering:geometricPrecision; image-rendering:optimizeQuality; fill-rule:evenodd; clip-rule:evenodd"
viewBox="0 0 5153.01 2572.83"
 xmlns:xlink="http://www.w3.org/1999/xlink"
 xmlns:xodm="http://www.corel.com/coreldraw/odm/2003">
 <defs>
  <style type="text/css">
   <![CDATA[
    .str2 {stroke:#373535;stroke-width:6.81;stroke-miterlimit:2.61313}
    .str1 {stroke:#FFF215;stroke-width:6.81;stroke-miterlimit:2.61313}
    .str7 {stroke:#605252;stroke-width:6.81;stroke-miterlimit:2.61313}
    .str6 {stroke:#85705A;stroke-width:6.81;stroke-miterlimit:2.61313}
    .str8 {stroke:#835F5E;stroke-width:6.81;stroke-miterlimit:2.61313}
    .str9 {stroke:#A56061;stroke-width:6.81;stroke-miterlimit:2.61313}
    .str10 {stroke:#C8545F;stroke-width:6.81;stroke-miterlimit:2.61313}
    .str0 {stroke:#ED2790;stroke-width:6.81;stroke-miterlimit:2.61313}
    .str11 {stroke:#EE305A;stroke-width:6.81;stroke-miterlimit:2.61313}
    .str4 {stroke:#606055;stroke-width:2.94;stroke-miterlimit:2.61313}
    .str5 {stroke:#85705A;stroke-width:2.94;stroke-miterlimit:2.61313}
    .str3 {stroke:#F9AB76;stroke-width:2.94;stroke-miterlimit:2.61313}
    .fil2 {fill:none}
    .fil6 {fill:#373535}
    .fil1 {fill:#FFF215}
    .fil7 {fill:#605252}
    .fil8 {fill:#835F5E}
    .fil9 {fill:#A56061}
    .fil10 {fill:#C8545F}
    .fil0 {fill:#ED2790}
    .fil11 {fill:#EE305A}
    .fil5 {fill:black}
    .fil3 {fill:#85705A;fill-rule:nonzero}
    .fil4 {fill:#A8518A;fill-rule:nonzero}
   ]]>
  </style>
 </defs>
 <g id="Layer_x0020_1">
  <metadata id="CorelCorpID_0Corel-Layer"/>
  <g id="_556504944">
   <g>
    <polygon class="fil0 str0" points="3.41,3.4 1360.97,3.4 3.41,1188 "/>
    <polygon class="fil1 str1" points="3.41,3.4 776.85,3.4 3.41,678.31 "/>
    <g>
     <polygon class="fil0 str0" points="5149.61,2569.43 3792.05,2569.43 5149.61,1384.83 "/>
     <polygon class="fil1 str1" points="5149.61,2569.43 4376.16,2569.43 5149.61,1894.52 "/>
    </g>
    <polygon class="fil2 str2" points="606.25,1239.89 787.52,1239.89 787.52,1398.06 606.25,1398.06 "/>
    <polygon class="fil2 str2" points="606.25,1725.73 787.52,1725.73 787.52,1883.9 606.25,1883.9 "/>
    <polygon class="fil2 str2" points="606.25,1474.23 787.52,1474.23 787.52,1632.4 606.25,1632.4 "/>
    <polygon class="fil2 str2" points="606.25,1985.3 787.52,1985.3 787.52,2143.47 606.25,2143.47 "/>
    <path class="fil3 str3" d="M3097.29 236.49l24.27 0c29.56,49.71 71.44,128.02 125.5,234.83 24.95,49.09 42.1,78.85 51.53,89.27 9.32,10.42 24.27,16.74 44.63,19.06 6.79,0.71 10.13,2.94 10.13,6.86 0,5.44 -4.38,8.11 -13.11,8.11 -4.72,0 -16.91,-0.63 -36.69,-1.87 -23.35,-1.6 -43.02,-2.41 -58.89,-2.41 -15.53,0 -35.78,0.71 -60.61,2.14 -18.64,1.07 -30.95,1.6 -36.7,1.6 -10.35,0 -15.53,-2.49 -15.53,-7.48 0,-3.74 3.57,-5.88 10.82,-6.41 27.6,-1.96 41.42,-10.42 41.42,-25.48 0,-7.04 -4.14,-19.87 -12.31,-38.58 -8.17,-18.62 -16.91,-35.63 -26.24,-50.87 -14.49,-0.18 -25.88,-0.27 -33.92,-0.27 -45.1,0 -80.18,0.09 -105.26,0.27 -19.44,41.07 -29.21,68.24 -29.21,81.52 0,9.53 4.82,16.83 14.49,22.09 9.66,5.25 20.13,8.28 31.4,9.17 8.63,0.71 12.88,3.39 12.88,8.02 0,4.63 -4.6,6.95 -13.8,6.95 -3.68,0 -13.12,-0.35 -28.41,-1.07 -19.78,-1.07 -34.28,-1.6 -43.25,-1.6 -17.72,0 -34.63,0.8 -50.61,2.5 -4.02,0.45 -7.48,0.71 -10.12,0.71 -8.4,0 -12.54,-2.67 -12.54,-7.93 0,-3.83 2.76,-6.32 8.17,-7.57 13.46,-2.94 24.04,-6.5 31.74,-10.87 7.59,-4.27 15.88,-12.56 24.73,-24.76 8.98,-12.3 19.56,-31.99 31.87,-59.07 27.72,-60.94 68.91,-143.16 123.65,-246.86zm-23.12 90.87l-57.39 116.53 118.01 -1.33c-6.33,-13.55 -15.99,-32.08 -28.98,-55.68 -14.16,-25.84 -24.62,-45.7 -31.64,-59.52zm415.02 86.15c11.16,-17.55 24.04,-30.73 38.65,-39.38 14.6,-8.73 30.82,-13.1 48.77,-13.1 17.03,0 30.59,3.83 40.83,11.49 10.24,7.57 15.31,17.2 15.31,28.6 0,9.08 -3.68,16.74 -10.93,23.07 -7.37,6.33 -16.22,9.53 -26.8,9.53 -7.82,0 -14.38,-1.6 -19.56,-4.72 -5.17,-3.12 -10.7,-8.64 -16.57,-16.57 -7.94,-11.49 -15.07,-17.19 -21.06,-17.19 -8.27,0 -17.59,6.5 -28.06,19.6 -10.47,13.01 -15.76,38.4 -15.76,76 0,47.48 2.06,73.94 6.21,79.28 4.26,5.26 13.46,7.93 27.61,7.93 12.42,0 18.63,2.58 18.63,7.75 0,4.81 -6.1,7.21 -18.29,7.21 -6.67,0 -16.57,-0.44 -29.34,-1.42 -11.73,-0.8 -22.78,-1.25 -33.13,-1.25 -22.31,0 -44.39,0.63 -66.25,1.87 -9.19,0.54 -14.61,0.8 -16.22,0.8 -9.43,0 -14.15,-2.67 -14.15,-8.02 0,-4.63 5.52,-7.13 16.57,-7.48 10.8,-0.36 18.28,-2.32 22.65,-5.88 4.26,-3.56 6.33,-11.4 6.33,-23.43l1.38 -65.39c0,-13.19 -0.69,-29.66 -2.07,-49.35 -1.27,-19.78 -2.53,-31.44 -3.68,-35.19 -1.15,-3.74 -4.02,-7.13 -8.63,-10.07 -4.61,-3.03 -10.91,-4.72 -18.74,-5.26 -8.17,-0.71 -13.23,-1.51 -15.41,-2.49 -2.19,-0.89 -3.22,-2.85 -3.22,-5.79 0,-4.63 5.63,-7.04 16.91,-7.22 20.69,-0.18 56.01,-2.31 105.7,-6.42l2.3 52.47zm291.36 -47.93c13.69,-0.54 34.62,-0.8 62.92,-0.8 12.77,0 23.35,0.89 31.63,2.58 -3.34,13.01 -6.32,19.96 -8.97,20.85 -2.53,0.8 -31.06,2.5 -85.58,4.9l-3.45 115.28c0,16.39 1.04,28.42 3.22,36.08 2.07,7.66 6.91,14.08 14.49,19.33 7.59,5.26 17.48,7.84 29.56,7.84 10.24,0 24.85,-4.19 43.95,-12.65 2.87,-1.16 5.28,-1.78 7.35,-1.78 4.25,0 6.32,1.69 6.32,5.17 0,4.98 -9.09,11.75 -27.14,20.39 -18.18,8.65 -39.46,12.92 -63.84,12.92 -28.87,0 -51.54,-5.52 -67.98,-16.48 -16.45,-10.96 -24.61,-34.12 -24.61,-69.4 0,-39.02 0.92,-77.87 2.64,-116.71 -22.09,0 -37.73,-0.44 -46.93,-1.33 -9.09,-0.8 -13.69,-3.39 -13.69,-7.48 0,-3.48 5.18,-6.24 15.64,-8.38 20.7,-3.65 39.34,-10.25 55.68,-19.78 16.34,-9.61 30.25,-24.85 41.86,-45.79 4.72,-8.55 8.06,-13.72 9.67,-15.49 1.72,-1.87 4.14,-2.76 7.37,-2.76 6.55,0 9.89,4.19 9.89,12.55l0 60.94zm252.83 -93.01c0,10.34 -4.83,19.16 -14.38,26.55 -9.55,7.39 -20.93,11.13 -34.28,11.13 -13.46,0 -24.96,-3.74 -34.51,-11.13 -9.44,-7.39 -14.15,-16.21 -14.15,-26.55 0,-10.51 4.71,-19.33 14.15,-26.73 9.55,-7.3 21.05,-10.95 34.51,-10.95 13.35,0 24.73,3.65 34.28,10.95 9.55,7.4 14.38,16.22 14.38,26.73zm4.83 87.93c0.92,24.41 1.38,67.89 1.38,130.52l-1.03 56.22c0,11.32 2.42,18.88 7.25,22.71 4.95,3.83 12.88,6.32 23.8,7.57 12.65,1.25 18.99,4.01 18.99,8.38 0,4.72 -4.95,7.13 -14.84,7.13 -4.71,0 -12.87,-0.27 -24.61,-0.8 -24.73,-1.25 -49.24,-1.87 -73.5,-1.87 -11.96,0 -24.04,0.54 -36.47,1.52 -7.36,0.8 -12.42,1.16 -15.17,1.16 -9.89,0 -14.84,-2.31 -14.84,-6.95 0,-4.46 6.56,-7.13 19.67,-8.02 17.37,-1.25 27.03,-5.7 29.1,-13.45 1.95,-7.74 2.99,-23.43 2.99,-47.04 0,-30.64 -0.58,-58.8 -1.84,-84.45 -1.27,-25.66 -3.56,-40.27 -6.91,-43.92 -3.45,-3.65 -12.19,-6.06 -26.45,-7.31 -11.05,-0.89 -16.57,-3.38 -16.57,-7.66 0,-4.19 5.64,-6.59 16.91,-7.31l7.01 -0.53 105.14 -5.88zm323.11 157.15c0,12.57 -4.26,24.68 -12.66,36.53 -8.38,11.84 -21.04,21.64 -37.95,29.39 -17.03,7.75 -36.81,11.59 -59.47,11.59 -28.3,0 -52.11,-4.46 -71.66,-13.46 -8.52,-3.83 -14.04,-5.7 -16.45,-5.7 -2.99,0 -5.17,1.43 -6.79,4.28 -3.68,6.68 -7.94,10.07 -12.88,10.07 -2.99,0 -5.07,-0.89 -6.32,-2.58 -1.26,-1.78 -2.3,-9.44 -3.1,-23.17 -0.81,-13.8 -1.15,-30.02 -1.15,-48.91 0,-7.21 2.76,-10.86 8.16,-10.86 5.41,0 11.27,5.34 17.37,16.12 21.52,39.11 50.84,58.71 87.88,58.71 13,0 24.05,-2.58 33.12,-7.84 9.09,-5.26 13.58,-12.82 13.58,-22.8 0,-8.38 -4.26,-15.51 -12.66,-21.56 -8.39,-6.06 -24.38,-13.55 -48.19,-22.62 -35.77,-13.72 -60.39,-25.75 -73.62,-36 -13.46,-10.25 -20.14,-23.87 -20.14,-40.98 0,-19.69 9.78,-35.63 29.34,-47.84 19.56,-12.3 43.59,-18.44 72.13,-18.44 22.66,0 45.66,5.25 69.02,15.77 3.1,1.43 5.74,2.14 7.7,2.14 2.99,0 5.18,-1.96 6.79,-5.79 2.18,-4.9 5.41,-7.31 9.67,-7.31 2.87,0 4.95,0.8 6.1,2.31 1.03,1.6 2.64,9.8 4.71,24.5 1.94,14.7 2.98,26.99 2.98,36.79 0,6.77 -2.52,10.16 -7.69,10.16 -5.41,0 -10.82,-4.9 -16.45,-14.7 -19.1,-32.6 -46.59,-48.91 -82.47,-48.91 -13.11,0 -23.58,2.49 -31.75,7.57 -8.05,5.08 -12.07,10.51 -12.07,16.22 0,7.39 5.17,14.07 15.52,20.22 10.24,6.24 30.37,14.7 60.28,25.31 25.53,9.09 43.25,16.03 53.26,21.02 10.01,4.99 18.52,12.12 25.42,21.39 7.02,9.36 10.47,19.16 10.47,29.39zm181.17 -152.07c13.69,-0.54 34.62,-0.8 62.92,-0.8 12.77,0 23.35,0.89 31.63,2.58 -3.34,13.01 -6.32,19.96 -8.96,20.85 -2.53,0.8 -31.07,2.5 -85.59,4.9l-3.45 115.28c0,16.39 1.04,28.42 3.22,36.08 2.07,7.66 6.91,14.08 14.5,19.33 7.58,5.26 17.47,7.84 29.55,7.84 10.24,0 24.85,-4.19 43.95,-12.65 2.87,-1.16 5.28,-1.78 7.35,-1.78 4.26,0 6.33,1.69 6.33,5.17 0,4.98 -9.09,11.75 -27.14,20.39 -18.18,8.65 -39.46,12.92 -63.84,12.92 -28.88,0 -51.54,-5.52 -67.98,-16.48 -16.45,-10.96 -24.62,-34.12 -24.62,-69.4 0,-39.02 0.92,-77.87 2.64,-116.71 -22.09,0 -37.74,-0.44 -46.93,-1.33 -9.09,-0.8 -13.69,-3.39 -13.69,-7.48 0,-3.48 5.17,-6.24 15.64,-8.38 20.7,-3.65 39.34,-10.25 55.67,-19.78 16.34,-9.61 30.25,-24.85 41.87,-45.79 4.71,-8.55 8.05,-13.72 9.66,-15.49 1.73,-1.87 4.14,-2.76 7.37,-2.76 6.55,0 9.89,4.19 9.89,12.55l0 60.94z"/>
    <g>
     <path class="fil4 str4" d="M1999.45 413.5c11.16,-17.55 24.05,-30.73 38.65,-39.38 14.6,-8.73 30.82,-13.1 48.77,-13.1 17.03,0 30.59,3.83 40.83,11.49 10.24,7.57 15.3,17.2 15.3,28.6 0,9.08 -3.68,16.74 -10.93,23.07 -7.36,6.33 -16.22,9.53 -26.79,9.53 -7.82,0 -14.38,-1.6 -19.56,-4.72 -5.19,-3.12 -10.7,-8.64 -16.57,-16.57 -7.94,-11.49 -15.07,-17.19 -21.05,-17.19 -8.27,0 -17.59,6.5 -28.06,19.6 -10.47,13.01 -15.76,38.4 -15.76,76 0,47.48 2.07,73.94 6.21,79.28 4.26,5.26 13.46,7.93 27.61,7.93 12.42,0 18.63,2.58 18.63,7.75 0,4.81 -6.1,7.21 -18.28,7.21 -6.67,0 -16.56,-0.44 -29.34,-1.42 -11.74,-0.8 -22.78,-1.25 -33.13,-1.25 -22.31,0 -44.4,0.63 -66.26,1.87 -9.19,0.54 -14.6,0.8 -16.21,0.8 -9.44,0 -14.15,-2.67 -14.15,-8.02 0,-4.63 5.52,-7.13 16.57,-7.48 10.8,-0.36 18.29,-2.32 22.65,-5.88 4.26,-3.56 6.33,-11.4 6.33,-23.43l1.37 -65.39c0,-13.19 -0.68,-29.66 -2.06,-49.35 -1.27,-19.78 -2.53,-31.44 -3.68,-35.19 -1.15,-3.74 -4.03,-7.13 -8.63,-10.07 -4.6,-3.03 -10.92,-4.72 -18.75,-5.26 -8.17,-0.71 -13.23,-1.51 -15.41,-2.49 -2.18,-0.89 -3.23,-2.85 -3.23,-5.79 0,-4.63 5.64,-7.04 16.91,-7.22 20.7,-0.18 56.02,-2.31 105.7,-6.42l2.3 52.47z"/>
     <path class="fil4 str4" d="M2290.82 365.57c13.69,-0.54 34.62,-0.8 62.92,-0.8 12.77,0 23.35,0.89 31.63,2.58 -3.34,13.01 -6.32,19.96 -8.97,20.85 -2.52,0.8 -31.06,2.5 -85.58,4.9l-3.45 115.28c0,16.39 1.04,28.42 3.22,36.08 2.07,7.66 6.91,14.08 14.49,19.33 7.59,5.26 17.48,7.84 29.56,7.84 10.24,0 24.85,-4.19 43.95,-12.65 2.87,-1.16 5.28,-1.78 7.35,-1.78 4.26,0 6.33,1.69 6.33,5.17 0,4.98 -9.09,11.75 -27.14,20.39 -18.18,8.65 -39.46,12.92 -63.84,12.92 -28.88,0 -51.54,-5.52 -67.98,-16.48 -16.45,-10.96 -24.61,-34.12 -24.61,-69.4 0,-39.02 0.92,-77.87 2.64,-116.71 -22.09,0 -37.73,-0.44 -46.93,-1.33 -9.09,-0.8 -13.69,-3.39 -13.69,-7.48 0,-3.48 5.18,-6.24 15.64,-8.38 20.7,-3.65 39.34,-10.25 55.67,-19.78 16.34,-9.61 30.25,-24.85 41.87,-45.79 4.71,-8.55 8.05,-13.72 9.66,-15.49 1.72,-1.87 4.14,-2.76 7.37,-2.76 6.55,0 9.89,4.19 9.89,12.55l0 60.94z"/>
     <path class="fil4 str4" d="M2663.06 517.65c0,12.57 -4.26,24.68 -12.66,36.53 -8.38,11.84 -21.04,21.64 -37.95,29.39 -17.03,7.75 -36.81,11.59 -59.47,11.59 -28.3,0 -52.1,-4.46 -71.66,-13.46 -8.51,-3.83 -14.03,-5.7 -16.45,-5.7 -2.99,0 -5.17,1.43 -6.79,4.28 -3.68,6.68 -7.94,10.07 -12.88,10.07 -2.99,0 -5.06,-0.89 -6.32,-2.58 -1.27,-1.78 -2.3,-9.44 -3.1,-23.17 -0.81,-13.8 -1.15,-30.02 -1.15,-48.91 0,-7.21 2.76,-10.86 8.15,-10.86 5.41,0 11.28,5.34 17.37,16.12 21.51,39.11 50.84,58.71 87.88,58.71 13,0 24.04,-2.58 33.12,-7.84 9.09,-5.26 13.57,-12.82 13.57,-22.8 0,-8.38 -4.25,-15.51 -12.65,-21.56 -8.39,-6.06 -24.38,-13.55 -48.2,-22.62 -35.77,-13.72 -60.39,-25.75 -73.61,-36 -13.46,-10.25 -20.14,-23.87 -20.14,-40.98 0,-19.69 9.78,-35.63 29.33,-47.84 19.56,-12.3 43.59,-18.44 72.13,-18.44 22.66,0 45.66,5.25 69.02,15.77 3.1,1.43 5.74,2.14 7.71,2.14 2.99,0 5.17,-1.96 6.79,-5.79 2.18,-4.9 5.41,-7.31 9.66,-7.31 2.88,0 4.95,0.8 6.1,2.31 1.03,1.6 2.64,9.8 4.71,24.5 1.95,14.7 2.98,26.99 2.98,36.79 0,6.77 -2.52,10.16 -7.69,10.16 -5.41,0 -10.82,-4.9 -16.45,-14.7 -19.1,-32.6 -46.59,-48.91 -82.48,-48.91 -13.11,0 -23.58,2.49 -31.75,7.57 -8.05,5.08 -12.08,10.51 -12.08,16.22 0,7.39 5.18,14.07 15.52,20.22 10.24,6.24 30.37,14.7 60.28,25.31 25.53,9.09 43.25,16.03 53.26,21.02 10.01,4.99 18.52,12.12 25.41,21.39 7.02,9.36 10.47,19.16 10.47,29.39z"/>
     <g>
      <path class="fil4 str5" d="M1594.45 230.86l24.26 0c29.57,49.71 71.44,128.02 125.51,234.83 24.95,49.09 42.09,78.85 51.53,89.27 9.32,10.42 24.27,16.74 44.63,19.06 6.79,0.71 10.13,2.94 10.13,6.86 0,5.43 -4.38,8.11 -13.12,8.11 -4.71,0 -16.9,-0.63 -36.69,-1.87 -23.35,-1.6 -43.03,-2.4 -58.9,-2.4 -15.52,0 -35.77,0.71 -60.61,2.14 -18.64,1.07 -30.94,1.6 -36.69,1.6 -10.36,0 -15.54,-2.5 -15.54,-7.48 0,-3.74 3.56,-5.88 10.82,-6.42 27.61,-1.96 41.41,-10.42 41.41,-25.48 0,-7.04 -4.14,-19.87 -12.3,-38.58 -8.18,-18.62 -16.91,-35.63 -26.24,-50.87 -14.49,-0.18 -25.88,-0.27 -33.93,-0.27 -45.09,0 -80.18,0.09 -105.25,0.27 -19.44,41.07 -29.21,68.24 -29.21,81.52 0,9.53 4.82,16.83 14.48,22.09 9.66,5.25 20.14,8.29 31.4,9.18 8.63,0.71 12.89,3.38 12.89,8.02 0,4.63 -4.6,6.95 -13.81,6.95 -3.68,0 -13.11,-0.35 -28.41,-1.07 -19.77,-1.07 -34.28,-1.6 -43.25,-1.6 -17.72,0 -34.63,0.8 -50.61,2.49 -4.03,0.45 -7.48,0.71 -10.13,0.71 -8.4,0 -12.53,-2.67 -12.53,-7.93 0,-3.83 2.75,-6.33 8.17,-7.57 13.45,-2.94 24.04,-6.5 31.74,-10.87 7.59,-4.27 15.88,-12.55 24.73,-24.76 8.97,-12.3 19.56,-31.99 31.87,-59.07 27.71,-60.94 68.9,-143.16 123.65,-246.86zm-23.12 90.87l-57.4 116.53 118.02 -1.33c-6.33,-13.55 -15.99,-32.08 -28.98,-55.68 -14.16,-25.84 -24.62,-45.7 -31.64,-59.51z"/>
      <path class="fil5 str6" d="M1665.99 504.03c17.28,33.11 31.23,59.86 42.5,81.47 12.82,-0.52 23.93,-0.78 33.32,-0.78 15.87,0 35.54,0.8 58.89,2.4 19.79,1.25 31.98,1.88 36.69,1.88 8.75,0 13.12,-2.68 13.12,-8.11 0,-3.92 -3.34,-6.15 -10.12,-6.86 -20.36,-2.32 -35.32,-8.64 -44.63,-19.07 -9.43,-10.42 -26.57,-40.18 -51.54,-89.26 -54.06,-106.82 -95.93,-185.13 -125.49,-234.84l-24.27 0c-12.56,23.79 -24.41,46.44 -35.54,67.97 4.15,7.96 8.21,15.74 12.19,23.36l0.22 -0.46c7.02,13.8 17.48,33.67 31.63,59.51 13,23.61 22.65,42.14 28.99,55.68l-0.98 0.01c4.45,8.54 8.75,16.78 12.89,24.71 7.78,12.92 15.15,27.09 22.12,42.4z"/>
      <path class="fil5 str6" d="M1665.99 504.03c17.28,33.11 31.23,59.86 42.5,81.47 12.82,-0.52 23.93,-0.78 33.32,-0.78 15.87,0 35.54,0.8 58.89,2.4 19.79,1.25 31.98,1.88 36.69,1.88 8.75,0 13.12,-2.68 13.12,-8.11 0,-3.92 -3.34,-6.15 -10.12,-6.86 -20.36,-2.32 -35.32,-8.64 -44.63,-19.07 -9.43,-10.42 -26.57,-40.18 -51.54,-89.26 -54.06,-106.82 -95.93,-185.13 -125.49,-234.84l-24.27 0c-12.56,23.79 -24.41,46.44 -35.54,67.97 4.15,7.96 8.21,15.74 12.19,23.36l0.22 -0.46c7.02,13.8 17.48,33.67 31.63,59.51 13,23.61 22.65,42.14 28.99,55.68l-0.98 0.01c4.45,8.54 8.75,16.78 12.89,24.71 7.78,12.92 15.15,27.09 22.12,42.4z"/>
      <path class="fil5 str6" d="M1503.47 459.63c25.08,-0.18 60.16,-0.27 105.25,-0.27 8.05,0 19.44,0.09 33.93,0.27 0.41,0.66 0.81,1.33 1.22,2 -4.14,-7.94 -8.44,-16.17 -12.89,-24.71l-117.04 1.33 57.18 -116.07c-3.98,-7.62 -8.04,-15.41 -12.19,-23.36 -37.4,72.33 -66.76,131.94 -88.12,178.9 -12.31,27.08 -22.89,46.77 -31.86,59.06 -8.86,12.21 -17.13,20.49 -24.73,24.77 -7.71,4.37 -18.29,7.93 -31.75,10.87 -5.41,1.25 -8.16,3.74 -8.16,7.57 0,5.26 4.14,7.93 12.53,7.93 2.65,0 6.1,-0.27 10.12,-0.71 16,-1.69 32.9,-2.49 50.61,-2.49 8.97,0 23.47,0.53 43.25,1.6 15.3,0.72 24.73,1.07 28.41,1.07 9.2,0 13.8,-2.31 13.8,-6.95 0,-4.63 -4.26,-7.31 -12.89,-8.02 -11.27,-0.89 -21.74,-3.92 -31.4,-9.18 -9.66,-5.25 -14.49,-12.56 -14.49,-22.09 0,-13.28 9.78,-40.45 29.22,-81.52z"/>
      <path class="fil5 str6" d="M1474.25 541.15c0,-13.28 9.78,-40.45 29.22,-81.52 25.08,-0.18 60.16,-0.27 105.25,-0.27 8.05,0 19.44,0.09 33.93,0.27 0.41,0.66 0.81,1.33 1.22,2 -4.14,-7.94 -8.44,-16.17 -12.89,-24.71l-117.04 1.33 57.18 -116.07c-3.98,-7.62 -8.04,-15.41 -12.19,-23.36 -37.4,72.33 -66.76,131.94 -88.12,178.9 -12.31,27.08 -22.89,46.77 -31.86,59.06 -8.86,12.21 -17.13,20.49 -24.73,24.77 -7.71,4.37 -18.29,7.93 -31.75,10.87 -5.41,1.25 -8.16,3.74 -8.16,7.57 0,5.26 4.14,7.93 12.53,7.93 2.65,0 6.1,-0.27 10.12,-0.71 16,-1.69 32.9,-2.49 50.61,-2.49 8.97,0 23.47,0.53 43.25,1.6 15.3,0.72 24.73,1.07 28.41,1.07 9.2,0 13.8,-2.31 13.8,-6.95 0,-4.63 -4.26,-7.31 -12.89,-8.02 -11.27,-0.89 -21.74,-3.92 -31.4,-9.18 -9.66,-5.25 -14.49,-12.56 -14.49,-22.09z"/>
      <path class="fil5 str6" d="M1474.25 541.15c0,-13.28 9.78,-40.45 29.22,-81.52 25.08,-0.18 60.16,-0.27 105.25,-0.27 8.05,0 19.44,0.09 33.93,0.27 0.41,0.66 0.81,1.33 1.22,2 -4.14,-7.94 -8.44,-16.17 -12.89,-24.71l-117.04 1.33 57.18 -116.07c-3.98,-7.62 -8.04,-15.41 -12.19,-23.36 -37.4,72.33 -66.76,131.94 -88.12,178.9 -12.31,27.08 -22.89,46.77 -31.86,59.06 -8.86,12.21 -17.13,20.49 -24.73,24.77 -7.71,4.37 -18.29,7.93 -31.75,10.87 -5.41,1.25 -8.16,3.74 -8.16,7.57 0,5.26 4.14,7.93 12.53,7.93 2.65,0 6.1,-0.27 10.12,-0.71 16,-1.69 32.9,-2.49 50.61,-2.49 8.97,0 23.47,0.53 43.25,1.6 15.3,0.72 24.73,1.07 28.41,1.07 9.2,0 13.8,-2.31 13.8,-6.95 0,-4.63 -4.26,-7.31 -12.89,-8.02 -11.27,-0.89 -21.74,-3.92 -31.4,-9.18 -9.66,-5.25 -14.49,-12.56 -14.49,-22.09z"/>
      <path class="fil5 str6" d="M1681.18 549.08c0,15.06 -13.8,23.52 -41.41,25.48 -7.25,0.53 -10.81,2.67 -10.81,6.41 0,4.99 5.18,7.49 15.53,7.49 5.74,0 18.05,-0.54 36.69,-1.61 9.82,-0.56 18.93,-1.01 27.31,-1.35 -11.27,-21.61 -25.22,-48.35 -42.5,-81.47 0.97,2.14 1.93,4.29 2.89,6.47 8.17,18.71 12.31,31.54 12.31,38.58z"/>
     </g>
    </g>
    <path class="fil4" d="M962.85 1273.88l0 52.38c0,7.27 1.1,11.91 3.29,13.92 2.14,2.02 6.1,3.07 11.91,3.16 4.15,0.04 6.8,0.22 7.85,0.52 1.06,0.31 1.6,0.85 1.6,1.64 0,1.26 -1.45,1.9 -4.43,1.9 -0.6,0 -1.37,-0.02 -2.23,-0.08 -13.93,-0.42 -24.11,-0.64 -30.59,-0.64 -6.89,0 -16.79,0.19 -29.8,0.57 -4.63,0.1 -7.77,0.14 -9.36,0.14 -3.48,0 -5.2,-0.64 -5.2,-1.9 0,-0.79 0.54,-1.31 1.69,-1.57 1.1,-0.26 3.87,-0.47 8.26,-0.67 5.43,-0.22 9.36,-0.88 11.74,-1.97 2.37,-1.1 3.84,-2.26 4.38,-3.52 0.5,-1.23 0.96,-4.18 1.33,-8.81l0 -31.19c0,-5.32 -0.6,-9.03 -1.74,-11.1 -1.19,-2.04 -3.06,-3.51 -5.61,-4.38 -2.6,-0.85 -6.76,-1.45 -12.47,-1.75 -4.57,-0.29 -7.3,-0.55 -8.3,-0.79 -0.97,-0.24 -1.47,-0.71 -1.47,-1.47 0,-0.83 0.56,-1.38 1.7,-1.6 1.08,-0.24 3.47,-0.42 7.12,-0.57 16.29,-0.64 30.67,-2.6 43.14,-5.86 1.49,-0.36 2.73,-0.54 3.73,-0.54 2.32,0 3.47,1.37 3.47,4.16zm166.85 72.82l-92.21 0c-4.48,0 -7.21,-0.07 -8.3,-0.24 -1.06,-0.16 -1.6,-0.55 -1.6,-1.17 0,-0.78 1.37,-1.66 4.15,-2.59 8.4,-2.92 20.08,-7.88 35.04,-14.92 14.94,-7.03 25.57,-13.8 31.88,-20.31 6.29,-6.54 9.44,-13.17 9.44,-19.88 0,-3.85 -1.45,-6.87 -4.34,-9.03 -2.92,-2.19 -6.89,-3.28 -11.87,-3.28 -6.02,0 -11.77,1.17 -17.31,3.46 -5.56,2.33 -9.94,5.64 -13.13,9.92 -3.24,4.3 -4.83,8.58 -4.83,12.9 0,2.4 0.76,4.21 2.28,5.42 1.5,1.21 3.73,1.8 6.7,1.8 3.73,0 7.35,-1.07 10.73,-3.21 3.33,-2.12 5.62,-3.92 6.85,-5.47 1.28,-1.45 2.78,-2.16 4.56,-2.16 2.42,0 3.65,0.59 3.65,1.76 0,1.81 -3.34,5.02 -10.05,9.6 -6.71,4.59 -15.15,6.89 -25.33,6.89 -8.13,0 -14.57,-1.37 -19.36,-4.13 -4.8,-2.76 -7.17,-5.9 -7.17,-9.36 0,-8.03 8.22,-15.44 24.7,-22.29 16.43,-6.84 32.41,-10.26 47.93,-10.26 12.37,0 22.46,1.95 30.22,5.86 7.76,3.92 11.64,8.79 11.64,14.59 0,2.97 -1.27,6.06 -3.79,9.27 -2.56,3.18 -5.76,5.98 -9.64,8.41 -3.88,2.4 -11.77,5.94 -23.68,10.58 -11.91,4.63 -23.32,8.89 -34.28,12.73l26.29 0c13.56,0 22.31,-0.4 26.29,-1.21 3.93,-0.81 7.89,-2.62 11.83,-5.44 2.82,-2.11 5.06,-3.19 6.66,-3.19 2.41,0 3.61,0.65 3.61,1.96 0,0.59 -0.41,1.33 -1.2,2.2 -5.42,5.99 -10.9,12.91 -16.38,20.79zm170.22 -38.08c0,5.98 -2.38,12.04 -7.08,18.14 -4.75,6.13 -12.42,11.22 -23.01,15.28 -10.64,4.06 -22.82,6.08 -36.65,6.08 -18.9,0 -34.46,-3.75 -46.7,-11.24 -12.18,-7.48 -18.3,-16.39 -18.3,-26.76 0,-10.73 6.3,-20.12 18.95,-28.13 12.59,-8 28.26,-12 47.01,-12 12.1,0 23.6,1.78 34.41,5.32 10.83,3.53 18.78,8.5 23.8,14.85 5.06,6.34 7.57,12.5 7.57,18.44zm-35.88 -0.24c0,-10.67 -2.51,-18.96 -7.59,-24.9 -5.02,-5.94 -12.14,-8.91 -21.31,-8.91 -9.13,0 -16.47,3.14 -22.1,9.39 -5.61,6.27 -8.45,15.23 -8.45,26.92 0,10.76 2.8,18.89 8.31,24.42 5.52,5.51 12.68,8.27 21.54,8.27 9.91,0 17.31,-2.93 22.23,-8.79 4.9,-5.87 7.36,-14.69 7.36,-26.4zm132.14 -4.59c13.39,0 23.2,1.82 29.36,5.46 6.16,3.66 9.22,7.48 9.22,11.48 0,4.72 -3.2,9.27 -9.63,13.59 -6.44,4.32 -14.66,7.7 -24.65,10.14 -10,2.45 -21.01,3.66 -33.06,3.66 -13.06,0 -24.09,-1.47 -33.23,-4.44 -9.09,-2.95 -13.65,-6.65 -13.65,-11.08 0,-2.82 1.68,-5.1 5.02,-6.76 3.38,-1.69 7.34,-2.53 12,-2.53 4.02,0 7.67,0.77 10.95,2.31 3.25,1.52 4.89,3.39 4.89,5.63 0,1.19 -0.73,2.66 -2.23,4.37 -1.06,1.31 -1.6,2.26 -1.6,2.85 0,1.49 1.6,2.71 4.75,3.66 3.16,0.95 6.62,1.43 10.46,1.43 9.85,0 18.39,-4.14 25.55,-12.43 7.17,-8.29 10.72,-14.21 10.72,-17.72 0,-1.9 -1.04,-3.45 -3.13,-4.61 -2.15,-1.17 -4.49,-1.73 -7.08,-1.73 -3.3,0 -9.01,1.63 -17.12,4.93 -5.7,2.31 -9.17,3.47 -10.41,3.47 -2.6,0 -3.88,-0.59 -3.88,-1.81 0,-0.83 1.01,-1.68 3.07,-2.52 15.61,-6.46 25.61,-11.57 30.02,-15.37 4.43,-3.78 6.62,-7.34 6.62,-10.69 0,-3.11 -1.51,-5.56 -4.48,-7.39 -2.97,-1.81 -6.75,-2.71 -11.36,-2.71 -7.03,0 -13.33,1.59 -18.99,4.77 -5.62,3.19 -8.44,6.87 -8.44,11.07 0,1.48 0.73,2.69 2.14,3.66 1.45,0.97 3.11,1.45 5.02,1.45 3.97,0 7.94,-1.78 12.01,-5.32 0.91,-0.83 2.14,-1.23 3.78,-1.23 2.43,0 3.61,0.64 3.61,1.95 0,1.33 -2.92,3.75 -8.72,7.3 -5.85,3.54 -12.82,5.3 -21,5.3 -5.62,0 -10.37,-1.02 -14.29,-3.09 -3.88,-2.06 -5.83,-4.66 -5.83,-7.74 0,-6.46 6.29,-11.9 18.89,-16.4 12.6,-4.46 26.53,-6.7 41.76,-6.7 12.7,0 22.14,1.4 28.35,4.21 6.22,2.83 9.32,6.01 9.32,9.58 0,2.14 -1.37,4.34 -4.15,6.63 -2.78,2.28 -5.71,4.06 -8.72,5.37 -3.07,1.31 -10.31,3.97 -21.88,8.01zm106.45 -17.89l-5.74 17.7c5.98,-2.55 12.14,-4.47 18.57,-5.73 6.39,-1.28 13.05,-1.92 19.91,-1.92 12.92,0 23.38,2.11 31.31,6.32 7.99,4.23 11.97,9.44 11.97,15.59 0,7.8 -6.54,14.73 -19.59,20.84 -13.05,6.1 -30.26,9.15 -51.59,9.15 -13.97,0 -24.65,-1.42 -32,-4.31 -7.35,-2.87 -11.04,-6.3 -11.04,-10.26 0,-2.68 1.78,-4.85 5.33,-6.48 3.57,-1.64 7.77,-2.47 12.6,-2.47 4.9,0 8.78,0.76 11.68,2.26 2.89,1.49 4.34,3.19 4.34,5.09 0,1.04 -0.54,2.47 -1.64,4.2 -0.91,1.45 -1.37,2.5 -1.37,3.19 0,1.07 1.05,2.06 3.2,2.99 2.15,0.93 5.47,1.37 9.91,1.37 11.95,0 20.63,-2.92 25.97,-8.79 5.35,-5.87 8.02,-12.28 8.02,-19.29 0,-4.54 -1.95,-7.89 -5.87,-10.1 -3.88,-2.2 -8.36,-3.29 -13.34,-3.29 -6.29,0 -12.22,1.25 -17.84,3.75 -5.71,2.52 -9.36,5.44 -11.04,8.79 -1.19,2.28 -2.74,3.42 -4.71,3.42 -2.6,0 -3.88,-0.73 -3.88,-2.23 0,-1.02 1.97,-8.19 5.93,-21.55 3.98,-13.33 6.62,-21.17 7.99,-23.54 9.09,1.23 19.82,1.85 32.23,1.85 15.79,0 27.16,-2.52 34.11,-7.55 2.23,-1.62 4.01,-2.43 5.34,-2.43 2.82,0 4.24,0.65 4.24,1.95 0,4.32 -5.39,9.03 -16.12,14.11 -10.76,5.06 -25.79,7.6 -45.19,7.6 -2.74,0 -6.67,-0.07 -11.69,-0.21zm145.07 16.91c4.97,-1.59 10.19,-2.75 15.61,-3.54 5.48,-0.78 11.14,-1.19 17.03,-1.19 13.6,0 25.42,2.16 35.42,6.51 10,4.34 14.98,10.24 14.98,17.68 0,7.67 -5.54,13.94 -16.58,18.82 -11.04,4.87 -25.07,7.31 -42.08,7.31 -19.59,0 -34.69,-3.13 -45.34,-9.41 -10.63,-6.27 -15.97,-14.44 -15.97,-24.54 0,-12.4 7.36,-22.91 22.01,-31.52 14.65,-8.63 34.28,-12.93 58.84,-12.93 13.46,0 23.77,1.28 30.91,3.82 7.12,2.57 10.67,5.75 10.67,9.55 0,2.43 -1.77,4.54 -5.37,6.33 -3.61,1.78 -7.76,2.68 -12.47,2.68 -4.98,0 -9.04,-0.85 -12.18,-2.54 -3.16,-1.72 -4.75,-4.02 -4.75,-6.97l0.14 -3.99c0,-2.88 -3.42,-4.33 -10.19,-4.33 -9.67,0 -18.3,2.35 -25.92,7.08 -7.63,4.7 -12.51,11.76 -14.75,21.17zm47.15 20.71c0,-6.75 -1.96,-11.78 -5.88,-15.13 -3.94,-3.35 -9.82,-5.03 -17.72,-5.03 -8.3,0 -14.74,1.71 -19.36,5.15 -4.61,3.45 -6.89,8.1 -6.89,13.97 0,6.56 2.38,11.76 7.17,15.61 4.8,3.82 10.96,5.75 18.58,5.75 7.38,0 13.28,-1.86 17.61,-5.56 4.34,-3.68 6.48,-8.6 6.48,-14.75zm144.48 -7.86c-4.98,1.52 -10.23,2.69 -15.67,3.47 -5.42,0.79 -11.12,1.19 -17.02,1.19 -13.73,0 -25.61,-2.16 -35.61,-6.51 -9.99,-4.34 -15.02,-10.24 -15.02,-17.67 0,-7.58 5.58,-13.84 16.71,-18.75 11.15,-4.92 25.21,-7.39 42.15,-7.39 19.62,0 34.73,3.13 45.42,9.43 10.63,6.3 15.98,14.47 15.98,24.52 0,12.45 -7.36,22.98 -22.05,31.56 -14.7,8.6 -34.33,12.89 -58.79,12.89 -14.02,0 -24.42,-1.28 -31.31,-3.87 -6.86,-2.57 -10.28,-5.76 -10.28,-9.51 0,-2.37 1.83,-4.47 5.42,-6.3 3.62,-1.8 7.77,-2.71 12.51,-2.71 4.19,0 8.03,0.76 11.56,2.31 3.51,1.52 5.29,3.94 5.29,7.22l-0.14 3.9c0,2.93 3.42,4.4 10.31,4.4 10.11,0 18.78,-2.42 26.03,-7.27 7.3,-4.85 12.14,-11.81 14.52,-20.91zm-47.17 -20.71c0,6.7 1.97,11.71 5.89,15.06 3.93,3.36 9.82,5.04 17.72,5.04 7.57,0 13.82,-1.59 18.8,-4.75 4.98,-3.16 7.45,-7.94 7.45,-14.3 0,-6.61 -2.38,-11.84 -7.18,-15.68 -4.79,-3.83 -11,-5.75 -18.71,-5.75 -7.4,0 -13.24,1.86 -17.52,5.56 -4.29,3.68 -6.45,8.63 -6.45,14.83zm193.56 8.48c10.05,2.11 17.52,4.89 22.54,8.34 4.97,3.45 7.48,7.46 7.48,12.07 0,6.75 -5.52,12.52 -16.62,17.35 -11.08,4.82 -24.73,7.21 -40.94,7.21 -15.25,0 -27.75,-1.9 -37.56,-5.67 -9.82,-3.78 -14.71,-8.06 -14.71,-12.88 0,-3.35 2.52,-6.74 7.54,-10.24 5.06,-3.47 12.88,-6.44 23.51,-8.89 -8.8,-2.23 -15.38,-4.89 -19.82,-8 -4.37,-3.09 -6.55,-6.66 -6.55,-10.69 0,-6.81 5.1,-12.3 15.29,-16.49 10.17,-4.15 22.77,-6.24 37.84,-6.24 14.33,0 25.75,1.59 34.27,4.8 8.55,3.21 12.85,7.25 12.85,12.17 0,3.11 -1.89,5.91 -5.58,8.46 -3.69,2.52 -10.22,5.41 -19.53,8.72zm-10 -2.42c4.52,-1.6 8.22,-3.64 11.19,-6.13 2.96,-2.52 4.46,-5.15 4.46,-7.94 0,-3.06 -2.42,-6.06 -7.31,-8.98 -4.83,-2.92 -11.96,-4.39 -21.31,-4.39 -8.64,0 -15.53,1.28 -20.67,3.85 -5.12,2.59 -7.68,5.35 -7.68,8.31 0,1.96 1.59,4.02 4.8,6.23 3.19,2.21 11.64,4.54 25.33,6.98 5.85,1.05 9.59,1.74 11.18,2.07zm-29.36 11.9c-5.87,2.42 -10.31,5.01 -13.28,7.77 -2.97,2.79 -4.43,5.76 -4.43,8.91 0,4.2 2.87,7.62 8.67,10.26 5.79,2.67 13.14,4 22.14,4 10.05,0 17.7,-1.43 22.95,-4.28 5.25,-2.85 7.86,-6.1 7.86,-9.78 0,-2.64 -2.06,-5.11 -6.22,-7.44 -4.11,-2.32 -16.71,-5.46 -37.71,-9.43zm158.76 6.27c-22.91,0 -44.55,0.33 -64.9,1 0.87,-2.92 1.78,-4.85 2.73,-5.73 0.91,-0.88 5.67,-3.94 14.2,-9.17 8.55,-5.2 16.85,-10.03 24.93,-14.43 8.09,-4.39 16.16,-8.62 24.19,-12.71 8.09,-4.09 13.24,-6.44 15.52,-7.06 2.23,-0.64 4.48,-0.95 6.71,-0.95 2.64,0 4.43,0.19 5.29,0.57 0.87,0.35 1.33,1.09 1.33,2.16l0.12 3.42 0 38.32c18.36,0 28.12,-3.71 29.32,-11.09 0.17,-1.74 1.41,-2.59 3.78,-2.59 2.42,0 3.61,0.88 3.61,2.61 0,0.52 -0.1,1.28 -0.33,2.28 -0.68,3.64 -1.05,7.27 -1.05,10.91 0,2.16 0.09,4.18 0.23,6.01 0.42,3.18 0.6,5.13 0.6,5.87 0,1.98 -1.24,2.97 -3.72,2.97 -1.95,0 -3.46,-1.23 -4.51,-3.68 -1.37,-3.04 -3.48,-5.27 -6.39,-6.7 -2.92,-1.45 -8.21,-2.17 -15.89,-2.17 -1.23,0 -3.16,0.05 -5.67,0.15l0 11.97c0,5.06 0.96,8.39 2.93,9.96 1.97,1.59 6.47,2.4 13.51,2.45 3.29,0.04 4.93,0.66 4.93,1.85 0,1.33 -1.64,2 -4.93,2 -0.64,0 -3.7,-0.08 -9.22,-0.22 -13.43,-0.34 -23.42,-0.5 -29.98,-0.5 -4.98,0 -11.47,0.19 -19.51,0.55 -1.6,0.12 -2.73,0.17 -3.46,0.17 -4.26,0 -6.93,-0.12 -7.99,-0.34 -1.06,-0.24 -1.6,-0.74 -1.6,-1.52 0,-1.23 2.92,-1.99 8.72,-2.28 4.48,-0.24 7.72,-0.74 9.73,-1.55 2.01,-0.78 3.38,-2.16 4.15,-4.16 0.73,-1.97 1.6,-8.1 2.59,-18.39zm-53.12 -3.85l53.12 -0.71c0.19,-1.25 0.29,-7.89 0.29,-19.86 0,-5.11 -0.1,-8.44 -0.29,-9.93l-21.22 11.61c-13.51,7.3 -24.14,13.62 -31.9,18.89zm220.56 -41.46l0 52.38c0,7.27 1.1,11.91 3.29,13.92 2.14,2.02 6.1,3.07 11.91,3.16 4.15,0.04 6.8,0.22 7.85,0.52 1.06,0.31 1.6,0.85 1.6,1.64 0,1.26 -1.45,1.9 -4.43,1.9 -0.59,0 -1.37,-0.02 -2.23,-0.08 -13.93,-0.42 -24.11,-0.64 -30.59,-0.64 -6.89,0 -16.79,0.19 -29.8,0.57 -4.63,0.1 -7.77,0.14 -9.36,0.14 -3.48,0 -5.2,-0.64 -5.2,-1.9 0,-0.79 0.54,-1.31 1.69,-1.57 1.1,-0.26 3.87,-0.47 8.26,-0.67 5.43,-0.22 9.36,-0.88 11.74,-1.97 2.37,-1.1 3.84,-2.26 4.38,-3.52 0.5,-1.23 0.96,-4.18 1.33,-8.81l0 -31.19c0,-5.32 -0.6,-9.03 -1.74,-11.1 -1.19,-2.04 -3.06,-3.51 -5.61,-4.38 -2.61,-0.85 -6.76,-1.45 -12.47,-1.75 -4.57,-0.29 -7.3,-0.55 -8.3,-0.79 -0.97,-0.24 -1.47,-0.71 -1.47,-1.47 0,-0.83 0.56,-1.38 1.7,-1.6 1.08,-0.24 3.46,-0.42 7.12,-0.57 16.29,-0.64 30.67,-2.6 43.14,-5.86 1.49,-0.36 2.73,-0.54 3.73,-0.54 2.32,0 3.47,1.37 3.47,4.16z"/>
    <path class="fil4" d="M985.32 1550.37c18.71,-16.92 28.08,-27.23 28.08,-30.98 0,-1.07 -0.52,-2.16 -1.58,-3.25 -1.03,-1.12 -4.04,-2.16 -8.99,-3.14 -2.04,-0.36 -3.04,-1.02 -3.04,-1.95 0,-1.45 1.21,-2.16 3.63,-2.16 0.68,0 1.58,0.05 2.72,0.14 8.61,0.47 15.16,0.71 19.67,0.71 4.92,0 10.71,-0.24 17.46,-0.71 1.28,-0.1 2.35,-0.14 3.21,-0.14 1.95,0 2.92,0.62 2.92,1.88 0,1.19 -0.97,1.83 -2.92,1.97 -4.51,0.34 -8.65,1.36 -12.44,3.11 -3.83,1.74 -8.4,5.06 -13.82,9.95 -5.41,4.92 -11.4,10.71 -18.01,17.39 -6.61,6.7 -10.27,10.76 -10.91,12.23 -0.66,1.48 -1,6.51 -1,15.16 0,13.11 0.86,20.98 2.58,23.59 1.72,2.64 6,3.94 12.78,3.94 2.44,0 3.65,0.67 3.65,2.02 0,1.4 -1.35,2.11 -4.06,2.11 -2.01,0 -7.58,-0.22 -16.71,-0.64 -5.17,-0.24 -8.89,-0.36 -11.13,-0.36 -7.34,0 -15.68,0.29 -25.01,0.86 -1.75,0.1 -3.13,0.14 -4.13,0.14 -2.58,0 -3.85,-0.66 -3.85,-1.99 0,-1.14 0.96,-1.78 2.92,-1.93 6.61,-0.54 10.74,-2.06 12.47,-4.56 1.72,-2.49 2.58,-7.96 2.58,-16.42 0,-7.62 -0.63,-12.71 -1.87,-15.23 -1.24,-2.55 -4.92,-7.22 -11.05,-14.09 -6.13,-6.84 -12.26,-13.42 -18.36,-19.72 -6.1,-6.3 -10.77,-10.3 -14.05,-12.04 -3.24,-1.71 -6.78,-2.8 -10.54,-3.25 -1.9,-0.24 -2.84,-0.86 -2.84,-1.86 0,-1.42 1.17,-2.14 3.56,-2.14 1.06,0 2.75,0.07 5.03,0.22 10.44,0.52 18.08,0.78 22.91,0.78 7.69,0 16.3,-0.24 25.86,-0.71 1.93,-0.09 3.59,-0.14 4.93,-0.14 2.31,0 3.45,0.62 3.45,1.84 0,1.16 -1.25,1.82 -3.69,2.02 -6.85,0.45 -10.29,2.09 -10.29,4.94 0,3.02 9.95,13.83 29.89,32.41zm154.79 19.55c0,8.55 -4.62,16.16 -13.81,22.81 -9.2,6.63 -20.91,9.96 -35.07,9.96 -13.06,0 -24.01,-2.79 -32.89,-8.37 -8.85,-5.58 -13.3,-12.99 -13.3,-22.28 0,-9.43 4.69,-17.08 14.06,-22.91 9.37,-5.82 20.8,-8.74 34.24,-8.74 13.63,0 24.83,2.75 33.61,8.26 8.78,5.49 13.16,12.59 13.16,21.27zm-27.9 4.77c0,-7.6 -1.83,-14.49 -5.47,-20.64 -3.65,-6.15 -8.89,-9.24 -15.74,-9.24 -6.03,0 -10.68,2.14 -13.95,6.44 -3.28,4.3 -4.93,10.34 -4.93,18.1 0,8.43 1.86,15.37 5.59,20.79 3.72,5.42 8.82,8.13 15.33,8.13 6.36,0 11.15,-2.17 14.36,-6.49 3.2,-4.32 4.82,-10 4.82,-17.09zm74.6 -33.02c0.34,4.77 0.52,11.26 0.52,19.51 0,12.5 0.17,20.5 0.51,24 0.31,3.49 1.66,6.13 4,7.89 2.31,1.76 4.95,2.64 7.92,2.64 3.51,0 7.07,-0.91 10.68,-2.71 3.6,-1.8 6.26,-4.18 7.98,-7.08 1.72,-2.92 2.58,-7.7 2.58,-14.33l0.21 -15.35c0,-4.08 -0.31,-6.77 -0.97,-8.06 -0.61,-1.31 -2.79,-1.99 -6.44,-2.09 -4.02,-0.14 -6.02,-0.85 -6.02,-2.16 0,-0.81 0.48,-1.31 1.45,-1.52 0.96,-0.22 3.55,-0.31 7.68,-0.31 9.3,0 17.98,-0.14 26,-0.42 0.28,1.81 0.42,11.71 0.42,29.72 0,14.46 0.22,22.36 0.63,23.68 0.37,1.33 2.58,2.09 6.57,2.33 2.38,0.19 3.56,0.86 3.56,1.99 0,1.33 -1.35,2 -4.04,2 -0.55,0 -1.37,-0.02 -2.51,-0.05 -1.89,-0.07 -4.1,-0.1 -6.65,-0.1 -8.95,0 -13.87,0.02 -14.84,0.07 -1.06,0.05 -1.96,0.07 -2.69,0.07 -1.31,0 -2.1,-0.14 -2.37,-0.45 -0.31,-0.3 -0.48,-1.21 -0.48,-2.71 0,-2.44 0.24,-4.92 0.72,-7.41 -4.65,3.92 -9.54,6.85 -14.67,8.79 -5.17,1.94 -10.58,2.92 -16.22,2.92 -17.16,0 -25.73,-6.63 -25.73,-19.86l0 -21.46c0,-7.41 -0.39,-11.76 -1.17,-13.01 -0.76,-1.28 -2.83,-2.07 -6.13,-2.41 -2.99,-0.28 -4.48,-0.88 -4.48,-1.82 0,-1.27 1.32,-1.88 3.93,-1.88 18.05,0 28.08,-0.14 30.06,-0.42zm81.64 -32.93c34.92,0.66 60.75,1 77.49,1 12.75,0 26.73,-0.24 42,-0.74 5.48,-0.17 9.92,-0.26 13.43,-0.26 1.34,0 3.62,0.02 6.75,0.07 0.48,1.9 1.1,5.82 1.83,11.76l1.5 10.98c0,1.81 -1.06,2.71 -3.23,2.71 -1.66,0 -3.27,-1.11 -4.82,-3.33 -2.55,-3.75 -5.82,-6.98 -9.85,-9.67 -4,-2.69 -8.65,-4.47 -13.94,-5.34 -5.31,-0.88 -14.06,-1.33 -26.25,-1.33 -1.07,7.13 -1.62,16.04 -1.62,26.73 0,10.93 0.31,21.47 0.9,31.64 0.63,10.17 1.34,16.3 2.23,18.38 0.86,2.09 2.35,3.64 4.45,4.61 2.06,0.97 6.99,1.64 14.74,2.02 2.62,0.14 3.93,0.79 3.93,1.92 0,1.28 -1.13,1.93 -3.45,1.93l-2.82 -0.08 -20.87 -0.35c-16.3,0 -26.18,0.04 -29.68,0.12l-12.72 0.31c-1,0 -3.09,-0.05 -6.27,-0.15 -1.54,-0.24 -2.3,-0.8 -2.3,-1.71 0,-1.33 1.27,-1.99 3.83,-1.99 5.99,0 10.47,-0.86 13.5,-2.59 3.02,-1.71 4.89,-4.44 5.58,-8.17 0.72,-3.76 1.07,-11.88 1.07,-24.38 0,-19.77 -0.86,-35.86 -2.62,-48.26 -11.08,0 -19.08,0.3 -24.04,0.93 -4.92,0.64 -9.68,2.32 -14.22,5.13 -4.59,2.8 -8.3,6.42 -11.2,10.83 -1.17,1.76 -2.48,2.64 -3.97,2.64 -2.3,0 -3.47,-0.69 -3.47,-2.09 0,-0.4 0.41,-3.47 1.27,-9.14 0.83,-5.68 1.8,-10.39 2.87,-14.14zm181.33 32.93c0.34,4.77 0.51,11.26 0.51,19.51 0,12.5 0.18,20.5 0.52,24 0.31,3.49 1.66,6.13 4,7.89 2.31,1.76 4.95,2.64 7.92,2.64 3.51,0 7.06,-0.91 10.68,-2.71 3.61,-1.8 6.27,-4.18 7.99,-7.08 1.72,-2.92 2.58,-7.7 2.58,-14.33l0.21 -15.35c0,-4.08 -0.31,-6.77 -0.97,-8.06 -0.62,-1.31 -2.79,-1.99 -6.44,-2.09 -4.02,-0.14 -6.03,-0.85 -6.03,-2.16 0,-0.81 0.49,-1.31 1.46,-1.52 0.96,-0.22 3.54,-0.31 7.68,-0.31 9.29,0 17.97,-0.14 26,-0.42 0.28,1.81 0.41,11.71 0.41,29.72 0,14.46 0.22,22.36 0.63,23.68 0.38,1.33 2.58,2.09 6.58,2.33 2.38,0.19 3.56,0.86 3.56,1.99 0,1.33 -1.35,2 -4.04,2 -0.55,0 -1.38,-0.02 -2.51,-0.05 -1.89,-0.07 -4.1,-0.1 -6.65,-0.1 -8.95,0 -13.87,0.02 -14.84,0.07 -1.06,0.05 -1.96,0.07 -2.69,0.07 -1.31,0 -2.1,-0.14 -2.37,-0.45 -0.31,-0.3 -0.49,-1.21 -0.49,-2.71 0,-2.44 0.24,-4.92 0.73,-7.41 -4.66,3.92 -9.54,6.85 -14.67,8.79 -5.17,1.94 -10.58,2.92 -16.22,2.92 -17.16,0 -25.73,-6.63 -25.73,-19.86l0 -21.46c0,-7.41 -0.39,-11.76 -1.17,-13.01 -0.76,-1.28 -2.83,-2.07 -6.13,-2.41 -2.99,-0.28 -4.48,-0.88 -4.48,-1.82 0,-1.27 1.31,-1.88 3.93,-1.88 18.05,0 28.08,-0.14 30.07,-0.42zm114.39 3.56c3.71,-1.6 7.54,-2.79 11.54,-3.54 3.96,-0.79 8.06,-1.17 12.32,-1.17 11.51,0 21.22,2.89 29.11,8.72 7.89,5.82 11.82,13.07 11.82,21.74 0,5.85 -1.94,11.15 -5.79,15.9 -3.85,4.73 -9.19,8.6 -15.98,11.59 -6.78,3 -14.64,4.49 -23.49,4.49 -6.06,0 -11.34,-0.57 -15.84,-1.69 -4.48,-1.14 -9.88,-3.09 -16.23,-5.86 -0.86,-0.36 -1.55,-0.55 -2,-0.55 -1.4,0 -2.44,0.91 -3.13,2.71 -1.28,3.11 -2.72,4.68 -4.27,4.68 -1.25,0 -2,-0.35 -2.31,-1.05 -0.31,-0.68 -0.44,-3.77 -0.44,-9.24l0.79 -50.51c0,-17.3 -0.24,-26.75 -0.79,-28.37 -0.56,-1.64 -3.1,-2.62 -7.65,-2.92 -2.9,-0.19 -4.34,-0.86 -4.34,-1.99 0,-1.24 1.31,-1.86 3.94,-1.86 1.47,0 4.65,0.1 9.53,0.29 3.68,0.14 6.92,0.21 9.65,0.21l10.05 -0.21c2.48,0 3.73,0.64 3.73,1.95l0.1 3.35c0,18.99 -0.1,30.1 -0.31,33.34zm17.66 0.56c-4.16,0 -7.95,1 -11.32,3 -3.38,1.99 -5.48,6.72 -6.37,14.2 -0.86,7.48 -1.31,13.31 -1.31,17.47 0,6.63 1.75,11.28 5.31,13.94 3.53,2.67 7.74,3.99 12.6,3.99 6.12,0 11.12,-2.43 14.98,-7.3 3.82,-4.87 5.75,-11.04 5.75,-18.56 0,-7.51 -1.72,-13.82 -5.17,-19 -3.44,-5.16 -8.26,-7.75 -14.46,-7.75zm91.08 23.95c-0.08,1.35 -0.1,2.32 -0.1,2.92 0,6.59 2.35,12.17 7.02,16.73 4.69,4.59 10.99,6.87 18.95,6.87 8.12,0 16.14,-2.43 24.03,-7.25 1.63,-0.97 2.75,-1.45 3.42,-1.45 1.75,0 2.64,0.64 2.64,1.95 0,1.02 -2.02,2.83 -6.06,5.46 -4.02,2.64 -8.98,4.63 -14.84,5.96 -5.86,1.36 -11.89,2.02 -18.14,2.02 -13.72,0 -24.46,-2.9 -32.24,-8.67 -7.75,-5.8 -11.65,-12.62 -11.65,-20.46 0,-9.43 4.45,-17.35 13.37,-23.73 8.91,-6.39 20.01,-9.58 33.33,-9.58 12.51,0 22.05,2.89 28.6,8.72 6.58,5.82 9.84,11.34 9.84,16.61 0,1.66 -0.65,2.66 -1.92,2.99 -1.27,0.33 -5.41,0.47 -12.4,0.47l-43.84 0.43zm0.61 -5.13c9.96,0.09 15.71,0.14 17.26,0.14 7.57,0 12.23,-0.38 13.95,-1.12 1.72,-0.74 2.58,-2.26 2.58,-4.51 0,-3.8 -1.58,-7.18 -4.75,-10.09 -3.18,-2.92 -6.92,-4.37 -11.3,-4.37 -10.36,0 -16.25,6.65 -17.74,19.96zm101.78 28.46c0,2.71 -1.38,4.99 -4.14,6.89 -2.75,1.9 -6.06,2.85 -9.94,2.85 -3.87,0 -7.13,-0.95 -9.9,-2.85 -2.75,-1.9 -4.13,-4.18 -4.13,-6.89 0,-2.64 1.37,-4.89 4.13,-6.79 2.76,-1.9 6.03,-2.85 9.9,-2.85 3.89,0 7.19,0.95 9.94,2.85 2.75,1.9 4.14,4.16 4.14,6.79zm19.36 -21.12c0,-8.76 4.34,-16.25 13.02,-22.5 8.67,-6.25 19.6,-9.36 32.72,-9.36 8.62,0 16.19,1.43 22.74,4.31 6.57,2.87 9.85,6.25 9.85,10.17 0,2.33 -1,4.16 -2.96,5.49 -1.99,1.33 -4.51,2 -7.54,2 -5.79,0 -9.92,-2.9 -12.4,-8.7 -1.34,-3.18 -2.82,-5.44 -4.45,-6.79 -1.69,-1.36 -4.1,-2.04 -7.26,-2.04 -5.51,0 -9.65,1.92 -12.44,5.75 -2.78,3.85 -4.2,9.6 -4.2,17.27 0,8.81 2.31,15.85 6.88,21.12 4.59,5.25 10.51,7.89 17.78,7.89 9.71,0 16.53,-4.04 20.53,-12.14 1.27,-2.54 2.78,-3.83 4.51,-3.83 1.9,0 2.86,0.69 2.86,2.09 0,4.06 -2.99,8.46 -8.96,13.18 -5.95,4.73 -14.87,7.11 -26.72,7.11 -12.99,0 -23.55,-2.92 -31.73,-8.77 -8.15,-5.84 -12.22,-13.25 -12.22,-22.24zm191.75 -2.04c0,8.55 -4.62,16.16 -13.81,22.81 -9.21,6.63 -20.92,9.96 -35.07,9.96 -13.06,0 -24.01,-2.79 -32.9,-8.37 -8.84,-5.58 -13.29,-12.99 -13.29,-22.28 0,-9.43 4.68,-17.08 14.06,-22.91 9.37,-5.82 20.8,-8.74 34.23,-8.74 13.64,0 24.83,2.75 33.62,8.26 8.78,5.49 13.16,12.59 13.16,21.27zm-27.9 4.77c0,-7.6 -1.83,-14.49 -5.48,-20.64 -3.65,-6.15 -8.88,-9.24 -15.73,-9.24 -6.03,0 -10.68,2.14 -13.95,6.44 -3.27,4.3 -4.93,10.34 -4.93,18.1 0,8.43 1.86,15.37 5.59,20.79 3.72,5.42 8.82,8.13 15.33,8.13 6.36,0 11.15,-2.17 14.36,-6.49 3.19,-4.32 4.82,-10 4.82,-17.09zm78.43 -23.63c4.88,-3.64 9.82,-6.35 14.77,-8.13 5,-1.78 10.06,-2.68 15.19,-2.68 3.65,0 7.55,0.52 11.61,1.55 4.05,1.01 8.47,3.39 13.29,7.17 4.83,-2.92 9.79,-5.08 14.84,-6.54 5.11,-1.45 10.34,-2.18 15.68,-2.18 9.16,0 15.91,1.71 20.18,5.15 4.2,3.49 6.34,8.67 6.34,15.51l-0.51 23.6c0,6.65 0.48,10.47 1.41,11.47 0.92,1 3.48,1.72 7.69,2.14 2.33,0.29 3.5,0.91 3.5,1.86 0,1.43 -1.37,2.14 -4.13,2.14 -0.49,0 -1.14,-0.02 -2,-0.1 -5.64,-0.4 -11.81,-0.62 -18.46,-0.62 -3.62,0 -7.99,0.14 -13.09,0.45 -3.13,0.17 -4.95,0.26 -5.43,0.26 -3.35,0 -5.03,-0.67 -5.03,-1.98 0,-1.16 1.1,-1.83 3.3,-2.02 3.79,-0.38 6.13,-0.83 6.99,-1.4 0.9,-0.55 1.55,-2.71 2.04,-6.44 0.45,-3.75 0.68,-10.07 0.68,-18.95 0,-8.13 -0.31,-13.71 -0.89,-16.73 -0.63,-3.04 -1.96,-5.35 -4.1,-6.96 -2.17,-1.59 -4.83,-2.4 -8.02,-2.4 -2.9,0 -5.83,0.76 -8.78,2.26 -2.97,1.49 -6.03,3.77 -9.16,6.84 -2.11,7.2 -3.14,17.56 -3.14,31.08 0,5.73 0.59,9.19 1.8,10.41 1.2,1.21 3.96,1.98 8.22,2.3 2.55,0.19 3.83,0.79 3.83,1.84 0,1.45 -1.62,2.16 -4.86,2.16 -0.72,0 -3.31,-0.1 -7.78,-0.31 -6.09,-0.26 -10.43,-0.4 -13.02,-0.4 -4.38,0 -9.55,0.19 -15.53,0.55 -1.54,0.12 -2.72,0.17 -3.55,0.17 -2.96,0 -4.45,-0.67 -4.45,-2 0,-1.19 1.46,-1.85 4.31,-2 3.82,-0.19 6.2,-1.66 7.2,-4.44 1,-2.77 1.52,-12.47 1.52,-29.13 0,-6.84 -0.86,-11.57 -2.61,-14.16 -1.77,-2.59 -4.62,-3.87 -8.62,-3.87 -6.88,0 -12.3,2.52 -16.3,7.53 -3.96,5.01 -5.95,14.73 -5.95,29.15 0,6.77 0.61,10.93 1.85,12.42 1.25,1.52 3.56,2.35 6.97,2.49 2.51,0.1 3.78,0.69 3.78,1.78 0,1.48 -1.37,2.21 -4.13,2.21 -0.52,0 -1.49,-0.08 -2.79,-0.24 -3.52,-0.31 -9.47,-0.47 -17.91,-0.47 -7.52,0 -13.34,0.19 -17.43,0.55 -1.6,0.12 -2.8,0.17 -3.62,0.17 -2.21,0 -3.32,-0.67 -3.32,-2 0,-1.23 1.25,-1.9 3.76,-2 4.04,-0.14 6.51,-0.61 7.48,-1.47 0.92,-0.83 1.64,-3.18 2.09,-7.01 0.49,-3.84 0.72,-11.07 0.72,-21.69 0,-8.29 -0.13,-13.48 -0.44,-15.59 -0.3,-2.09 -1.41,-3.68 -3.34,-4.83 -1.93,-1.11 -4.58,-1.68 -7.95,-1.74 -2.79,-0.05 -4.17,-0.66 -4.17,-1.9 0,-1.21 1.37,-1.85 4.13,-1.94 3.58,-0.14 8.85,-0.47 15.84,-0.97 6.99,-0.5 13.06,-0.74 18.16,-0.74 0.83,1.35 1.23,3.59 1.23,6.7 0,0.79 0.03,2.16 0.11,4.12z"/>
    <path class="fil4" d="M929.15 1796.62l-3.83 17.7c3.98,-2.55 8.09,-4.47 12.38,-5.73 4.26,-1.28 8.7,-1.92 13.26,-1.92 8.61,0 15.58,2.11 20.86,6.32 5.32,4.23 7.97,9.44 7.97,15.59 0,7.8 -4.36,14.73 -13.06,20.84 -8.69,6.1 -20.16,9.15 -34.37,9.15 -9.31,0 -16.42,-1.42 -21.33,-4.31 -4.89,-2.87 -7.36,-6.3 -7.36,-10.26 0,-2.68 1.19,-4.85 3.56,-6.48 2.38,-1.64 5.17,-2.47 8.4,-2.47 3.26,0 5.84,0.76 7.78,2.26 1.92,1.49 2.89,3.19 2.89,5.09 0,1.04 -0.35,2.47 -1.09,4.2 -0.61,1.45 -0.91,2.5 -0.91,3.19 0,1.07 0.7,2.06 2.13,2.99 1.43,0.93 3.65,1.37 6.61,1.37 7.97,0 13.74,-2.92 17.3,-8.79 3.56,-5.86 5.35,-12.28 5.35,-19.29 0,-4.54 -1.3,-7.89 -3.92,-10.1 -2.58,-2.2 -5.57,-3.29 -8.89,-3.29 -4.2,0 -8.15,1.25 -11.89,3.75 -3.81,2.52 -6.23,5.44 -7.36,8.79 -0.79,2.28 -1.82,3.42 -3.14,3.42 -1.73,0 -2.58,-0.73 -2.58,-2.23 0,-1.02 1.32,-8.2 3.95,-21.55 2.66,-13.33 4.42,-21.17 5.32,-23.55 6.06,1.23 13.21,1.85 21.47,1.85 10.53,0 18.1,-2.52 22.73,-7.55 1.49,-1.62 2.67,-2.43 3.56,-2.43 1.89,0 2.84,0.65 2.84,1.95 0,4.32 -3.6,9.03 -10.74,14.11 -7.17,5.06 -17.19,7.6 -30.12,7.6 -1.82,0 -4.44,-0.07 -7.78,-0.21zm127.97 17.53c6.69,2.11 11.67,4.89 15.02,8.34 3.32,3.45 4.99,7.46 4.99,12.07 0,6.75 -3.68,12.52 -11.08,17.35 -7.38,4.82 -16.48,7.21 -27.28,7.21 -10.16,0 -18.49,-1.9 -25.03,-5.67 -6.54,-3.78 -9.8,-8.06 -9.8,-12.88 0,-3.35 1.67,-6.74 5.02,-10.24 3.37,-3.47 8.58,-6.44 15.66,-8.89 -5.86,-2.23 -10.25,-4.89 -13.2,-8 -2.92,-3.09 -4.37,-6.66 -4.37,-10.69 0,-6.81 3.41,-12.3 10.19,-16.49 6.77,-4.15 15.17,-6.24 25.21,-6.24 9.55,0 17.15,1.59 22.84,4.8 5.69,3.21 8.55,7.25 8.55,12.17 0,3.11 -1.26,5.91 -3.72,8.46 -2.47,2.52 -6.81,5.41 -13.01,8.72zm-6.66 -2.42c3.01,-1.6 5.47,-3.64 7.45,-6.13 1.98,-2.52 2.97,-5.15 2.97,-7.94 0,-3.06 -1.6,-6.06 -4.86,-8.98 -3.22,-2.92 -7.97,-4.39 -14.21,-4.39 -5.75,0 -10.34,1.28 -13.77,3.85 -3.41,2.59 -5.12,5.35 -5.12,8.31 0,1.96 1.07,4.02 3.19,6.23 2.13,2.21 7.76,4.54 16.88,6.98 3.9,1.05 6.39,1.74 7.45,2.07zm-19.56 11.9c-3.91,2.42 -6.88,5.01 -8.85,7.77 -1.98,2.79 -2.95,5.76 -2.95,8.91 0,4.2 1.92,7.62 5.78,10.26 3.85,2.67 8.75,4 14.75,4 6.69,0 11.8,-1.43 15.29,-4.28 3.5,-2.85 5.24,-6.1 5.24,-9.78 0,-2.64 -1.37,-5.11 -4.14,-7.44 -2.74,-2.32 -11.14,-5.46 -25.13,-9.43zm91.89 -10.1c3.32,-1.59 6.79,-2.75 10.4,-3.54 3.65,-0.78 7.42,-1.19 11.35,-1.19 9.06,0 16.94,2.16 23.6,6.51 6.66,4.34 9.98,10.24 9.98,17.68 0,7.67 -3.69,13.94 -11.05,18.82 -7.36,4.87 -16.7,7.31 -28.04,7.31 -13.05,0 -23.12,-3.13 -30.21,-9.41 -7.08,-6.27 -10.65,-14.44 -10.65,-24.54 0,-12.4 4.91,-22.91 14.67,-31.52 9.76,-8.63 22.84,-12.93 39.2,-12.93 8.98,0 15.85,1.28 20.6,3.82 4.74,2.57 7.11,5.75 7.11,9.55 0,2.43 -1.18,4.54 -3.58,6.33 -2.4,1.78 -5.17,2.68 -8.3,2.68 -3.32,0 -6.02,-0.85 -8.12,-2.54 -2.1,-1.72 -3.16,-4.02 -3.16,-6.97l0.1 -3.99c0,-2.88 -2.29,-4.33 -6.79,-4.33 -6.45,0 -12.2,2.35 -17.28,7.08 -5.08,4.7 -8.33,11.76 -9.82,21.17zm31.42 20.71c0,-6.75 -1.31,-11.78 -3.92,-15.13 -2.62,-3.35 -6.54,-5.03 -11.81,-5.03 -5.53,0 -9.82,1.71 -12.9,5.15 -3.07,3.45 -4.59,8.1 -4.59,13.97 0,6.56 1.59,11.76 4.78,15.61 3.19,3.82 7.3,5.75 12.38,5.75 4.92,0 8.84,-1.86 11.74,-5.56 2.89,-3.68 4.31,-8.6 4.31,-14.75zm96.27 -7.86c-3.32,1.52 -6.81,2.69 -10.44,3.47 -3.61,0.79 -7.41,1.19 -11.34,1.19 -9.16,0 -17.06,-2.16 -23.73,-6.51 -6.66,-4.34 -10.01,-10.24 -10.01,-17.67 0,-7.58 3.72,-13.84 11.13,-18.75 7.42,-4.92 16.8,-7.39 28.08,-7.39 13.08,0 23.15,3.13 30.27,9.43 7.08,6.3 10.64,14.47 10.64,24.52 0,12.45 -4.9,22.98 -14.69,31.56 -9.8,8.6 -22.87,12.89 -39.18,12.89 -9.34,0 -16.27,-1.28 -20.86,-3.87 -4.56,-2.57 -6.84,-5.76 -6.84,-9.51 0,-2.38 1.21,-4.47 3.61,-6.3 2.4,-1.8 5.17,-2.71 8.34,-2.71 2.79,0 5.36,0.76 7.7,2.31 2.34,1.52 3.53,3.94 3.53,7.22l-0.1 3.9c0,2.93 2.28,4.4 6.87,4.4 6.74,0 12.51,-2.42 17.35,-7.27 4.86,-4.85 8.09,-11.81 9.67,-20.91zm-31.43 -20.71c0,6.7 1.32,11.71 3.93,15.06 2.61,3.36 6.54,5.04 11.81,5.04 5.05,0 9.21,-1.59 12.53,-4.75 3.31,-3.16 4.96,-7.94 4.96,-14.3 0,-6.61 -1.59,-11.84 -4.78,-15.68 -3.19,-3.83 -7.33,-5.75 -12.47,-5.75 -4.92,0 -8.82,1.86 -11.67,5.56 -2.86,3.68 -4.3,8.63 -4.3,14.83zm97.98 -9.05l-3.83 17.7c3.98,-2.55 8.09,-4.47 12.38,-5.73 4.26,-1.28 8.7,-1.92 13.25,-1.92 8.62,0 15.59,2.11 20.86,6.32 5.32,4.23 7.98,9.44 7.98,15.59 0,7.8 -4.36,14.73 -13.05,20.84 -8.7,6.1 -20.16,9.15 -34.37,9.15 -9.31,0 -16.43,-1.42 -21.32,-4.31 -4.89,-2.87 -7.36,-6.3 -7.36,-10.26 0,-2.68 1.19,-4.85 3.56,-6.48 2.37,-1.64 5.17,-2.47 8.39,-2.47 3.27,0 5.85,0.76 7.79,2.26 1.93,1.49 2.89,3.19 2.89,5.09 0,1.04 -0.36,2.47 -1.09,4.2 -0.61,1.45 -0.91,2.5 -0.91,3.19 0,1.07 0.71,2.06 2.13,2.99 1.43,0.93 3.64,1.37 6.6,1.37 7.97,0 13.75,-2.92 17.3,-8.79 3.57,-5.86 5.35,-12.28 5.35,-19.29 0,-4.54 -1.3,-7.89 -3.91,-10.1 -2.58,-2.2 -5.57,-3.29 -8.89,-3.29 -4.19,0 -8.14,1.25 -11.89,3.75 -3.8,2.52 -6.23,5.44 -7.36,8.79 -0.79,2.28 -1.82,3.42 -3.13,3.42 -1.73,0 -2.58,-0.73 -2.58,-2.23 0,-1.02 1.31,-8.2 3.95,-21.55 2.65,-13.33 4.41,-21.17 5.32,-23.55 6.06,1.23 13.2,1.85 21.47,1.85 10.52,0 18.1,-2.52 22.73,-7.55 1.48,-1.62 2.67,-2.43 3.55,-2.43 1.88,0 2.83,0.65 2.83,1.95 0,4.32 -3.59,9.03 -10.74,14.11 -7.18,5.06 -17.19,7.6 -30.12,7.6 -1.83,0 -4.44,-0.07 -7.78,-0.21zm139.37 60.8l-61.44 0c-2.99,0 -4.81,-0.07 -5.53,-0.24 -0.71,-0.16 -1.07,-0.55 -1.07,-1.17 0,-0.78 0.91,-1.66 2.77,-2.59 5.6,-2.92 13.38,-7.88 23.35,-14.92 9.95,-7.03 17.03,-13.8 21.23,-20.32 4.19,-6.53 6.3,-13.16 6.3,-19.88 0,-3.85 -0.97,-6.87 -2.89,-9.03 -1.95,-2.19 -4.59,-3.28 -7.91,-3.28 -4.01,0 -7.84,1.17 -11.52,3.46 -3.72,2.33 -6.63,5.64 -8.75,9.92 -2.16,4.3 -3.23,8.58 -3.23,12.9 0,2.4 0.51,4.21 1.52,5.42 1,1.21 2.5,1.8 4.47,1.8 2.48,0 4.89,-1.07 7.15,-3.21 2.22,-2.12 3.74,-3.92 4.56,-5.47 0.85,-1.45 1.86,-2.16 3.04,-2.16 1.62,0 2.43,0.59 2.43,1.76 0,1.81 -2.23,5.01 -6.7,9.6 -4.46,4.59 -10.09,6.89 -16.88,6.89 -5.42,0 -9.7,-1.37 -12.89,-4.13 -3.2,-2.76 -4.78,-5.9 -4.78,-9.36 0,-8.03 5.47,-15.44 16.45,-22.29 10.95,-6.84 21.6,-10.26 31.93,-10.26 8.24,0 14.96,1.95 20.14,5.86 5.17,3.92 7.76,8.79 7.76,14.59 0,2.97 -0.85,6.06 -2.53,9.27 -1.71,3.18 -3.84,5.98 -6.42,8.41 -2.58,2.4 -7.84,5.94 -15.78,10.58 -7.94,4.63 -15.54,8.89 -22.85,12.73l17.52 0c9.03,0 14.87,-0.4 17.52,-1.21 2.62,-0.81 5.26,-2.62 7.89,-5.44 1.88,-2.12 3.37,-3.19 4.43,-3.19 1.61,0 2.4,0.65 2.4,1.96 0,0.59 -0.27,1.33 -0.79,2.2 -3.62,5.99 -7.26,12.91 -10.92,20.79z"/>
    <path class="fil3" d="M977.45 2119.83c-2.78,0 -14.17,-0.14 -34.17,-0.42l-20.84 0.07 -12.2 -0.14c-2.91,0 -4.74,-0.12 -5.44,-0.38 -0.75,-0.24 -1.1,-0.81 -1.1,-1.69 0,-1.34 1.35,-2 4.09,-2 5.19,0 9.01,-0.64 11.42,-1.95 2.42,-1.31 3.94,-3.71 4.55,-7.2 0.65,-3.49 1.23,-10.43 1.77,-20.86 0.54,-10.4 0.81,-20 0.81,-28.74 0,-12.33 -0.81,-19.89 -2.42,-22.71 -1.62,-2.8 -5.62,-4.33 -11.97,-4.57 -2.3,-0.14 -3.42,-0.83 -3.42,-2.06 0,-1.24 1,-1.86 3.04,-1.86 1.19,0 5.26,0.26 12.19,0.79 7.72,0.52 13.07,0.78 16.1,0.78l35.84 -0.71c11.97,0 23.53,1.69 34.61,5.06 11.1,3.37 19.92,8.89 26.46,16.54 6.51,7.65 9.78,16.32 9.78,26 0,7.17 -1.91,13.85 -5.75,20.08 -3.8,6.2 -9.36,11.43 -16.59,15.65 -7.26,4.23 -14.45,7.01 -21.62,8.34 -7.13,1.33 -15.51,2 -25.16,2zm-6.49 -4.99c13.3,0 23.79,-3.42 31.49,-10.28 7.72,-6.85 11.59,-16.63 11.59,-29.34 0,-12.92 -4.17,-23.57 -12.48,-31.93 -8.28,-8.36 -20.1,-12.54 -35.43,-12.54 -5.23,0 -8.38,0.22 -9.42,0.66 -1.06,0.46 -1.71,0.91 -1.94,1.36 -0.25,0.47 -0.64,5.7 -1.16,15.65l-1.13 23.72c-0.19,5.82 -0.3,13.04 -0.3,21.66 0,6.49 0.39,10.95 1.16,13.4 0.75,2.44 2.42,4.32 5.01,5.65 2.62,1.33 6.81,1.99 12.61,1.99zm118.39 -28.22c-0.07,1.35 -0.1,2.33 -0.1,2.92 0,6.59 2.2,12.17 6.59,16.73 4.39,4.59 10.3,6.87 17.75,6.87 7.62,0 15.12,-2.43 22.52,-7.25 1.52,-0.97 2.58,-1.45 3.19,-1.45 1.64,0 2.48,0.64 2.48,1.94 0,1.03 -1.89,2.83 -5.67,5.47 -3.77,2.64 -8.42,4.63 -13.91,5.96 -5.49,1.36 -11.13,2.02 -17,2.02 -12.84,0 -22.91,-2.9 -30.2,-8.67 -7.26,-5.8 -10.91,-12.62 -10.91,-20.46 0,-9.43 4.17,-17.35 12.52,-23.73 8.35,-6.39 18.75,-9.58 31.23,-9.58 11.72,0 20.65,2.9 26.78,8.72 6.16,5.82 9.23,11.34 9.23,16.61 0,1.66 -0.62,2.66 -1.81,2.99 -1.19,0.34 -5.06,0.48 -11.61,0.48l-41.07 0.43zm0.57 -5.13c9.33,0.09 14.72,0.14 16.17,0.14 7.1,0 11.46,-0.38 13.07,-1.12 1.61,-0.73 2.42,-2.26 2.42,-4.51 0,-3.79 -1.49,-7.17 -4.45,-10.09 -2.97,-2.92 -6.48,-4.38 -10.59,-4.38 -9.7,0 -15.22,6.66 -16.62,19.96zm112.86 18.3c4.1,-6.47 7.91,-13.26 11.46,-20.39 3.51,-7.13 5.29,-11.57 5.29,-13.31 0,-1.9 -1.45,-3.13 -4.36,-3.7 -2.77,-0.55 -4.15,-1.31 -4.15,-2.28 0,-1.15 1.13,-1.72 3.42,-1.72 1.13,0 3.45,0.15 6.99,0.41 3.23,0.22 5.46,0.3 6.72,0.3 2.8,0 5.39,-0.16 7.77,-0.47 1.32,-0.17 2.36,-0.24 3.13,-0.24 1.97,0 2.94,0.67 2.94,2 0,1 -1.33,1.66 -3.97,2 -6,0.69 -11,4.77 -14.97,12.26 -4.55,8.48 -8.87,16.35 -12.97,23.6 -4.14,7.24 -7.29,12.47 -9.49,15.7 -2.18,3.23 -3.52,4.96 -4,5.23 -0.44,0.26 -1.02,0.38 -1.73,0.38 -0.88,0 -1.72,-0.46 -2.53,-1.33 -0.8,-0.88 -4.03,-5.54 -9.74,-14l-21.69 -32.02c-3.16,-4.59 -5.55,-7.35 -7.19,-8.25 -1.64,-0.9 -3.07,-1.47 -4.26,-1.71 -2.45,-0.41 -3.67,-1.05 -3.67,-1.92 0,-1.28 1.19,-1.93 3.58,-1.93 1.03,0 2.58,0.07 4.75,0.19 5.1,0.36 10.07,0.52 14.94,0.52 1.94,0 4.16,-0.07 6.62,-0.21 4.45,-0.34 7.13,-0.51 8.02,-0.51 4.17,0 6.23,0.55 6.23,1.62 0,1.3 -1.16,2.04 -3.49,2.23 -3.28,0.24 -4.93,1.37 -4.93,3.42 0,1.19 2.64,5.98 7.91,14.33 5.29,8.36 9.74,14.95 13.39,19.79zm78.12 -66.27c0,2.75 -1.35,5.11 -4.03,7.08 -2.69,1.97 -5.87,2.97 -9.62,2.97 -3.77,0 -6.99,-1 -9.67,-2.97 -2.65,-1.98 -3.97,-4.33 -3.97,-7.08 0,-2.8 1.32,-5.15 3.97,-7.13 2.67,-1.94 5.9,-2.92 9.67,-2.92 3.75,0 6.93,0.97 9.62,2.92 2.68,1.98 4.03,4.33 4.03,7.13zm1.35 23.45c0.26,6.51 0.39,18.11 0.39,34.81l-0.3 14.99c0,3.02 0.68,5.04 2.04,6.06 1.38,1.02 3.61,1.69 6.67,2.02 3.55,0.34 5.32,1.07 5.32,2.24 0,1.26 -1.4,1.9 -4.17,1.9 -1.32,0 -3.61,-0.07 -6.91,-0.21 -6.94,-0.34 -13.81,-0.5 -20.61,-0.5 -3.36,0 -6.75,0.14 -10.24,0.4 -2.06,0.22 -3.48,0.31 -4.26,0.31 -2.77,0 -4.16,-0.61 -4.16,-1.86 0,-1.19 1.84,-1.9 5.51,-2.14 4.89,-0.33 7.59,-1.52 8.17,-3.59 0.55,-2.06 0.84,-6.24 0.84,-12.54 0,-8.18 -0.17,-15.68 -0.51,-22.53 -0.35,-6.84 -1,-10.74 -1.94,-11.71 -0.96,-0.97 -3.42,-1.62 -7.42,-1.95 -3.09,-0.24 -4.65,-0.9 -4.65,-2.04 0,-1.11 1.58,-1.76 4.75,-1.94l1.97 -0.14 29.48 -1.57zm95.92 -27.37c0.81,-0.59 1.65,-1.52 2.45,-2.78 0.97,-1.48 2.04,-2.21 3.23,-2.21 1.71,0 2.78,1.02 3.16,3.06l3.29 19.13 0.39 2.3c0,1.26 -0.88,1.88 -2.58,1.88 -1.25,0 -2.2,-0.21 -2.74,-0.67 -0.59,-0.44 -1.64,-1.87 -3.23,-4.3 -2.71,-4.13 -7.2,-7.86 -13.41,-11.17 -6.23,-3.29 -12.53,-4.96 -18.82,-4.96 -6.1,0 -11.19,1.28 -15.26,3.87 -4.07,2.57 -6.1,5.82 -6.1,9.72 0,3.11 1.9,5.92 5.67,8.43 3.82,2.5 11.1,4.87 21.88,7.13 16.93,3.54 28.38,7.91 34.39,13.11 5.93,5.19 8.9,10.95 8.9,17.3 0,6.49 -2.17,11.95 -6.52,16.34 -4.36,4.4 -9.55,7.86 -15.61,10.38 -6.08,2.55 -13.82,3.8 -23.26,3.8 -5.37,0 -10.91,-0.56 -16.66,-1.69 -5.73,-1.11 -11.67,-2.8 -17.77,-5.03 -1.25,1.05 -2.35,2.4 -3.22,4.08 -1,1.86 -2.26,2.79 -3.77,2.79 -1.56,0 -2.48,-1.26 -2.8,-3.76l-2.71 -25.23c-0.13,-1.09 -0.19,-1.78 -0.19,-2.07 0,-1.35 0.93,-2.02 2.81,-2.02 1.34,0 2.68,1.17 3.93,3.5 3.85,6.99 9.07,12.81 15.68,17.47 6.56,4.66 14.24,6.98 22.98,6.98 7.45,0 13.45,-1.63 18.03,-4.89 4.56,-3.25 6.84,-6.96 6.84,-11.1 0,-4.14 -2.13,-7.62 -6.36,-10.47 -4.22,-2.83 -11.84,-5.56 -22.81,-8.15 -10.68,-2.54 -18.61,-4.99 -23.77,-7.31 -5.19,-2.31 -9.36,-5.52 -12.45,-9.56 -3.13,-4.06 -4.68,-8.19 -4.68,-12.35 0,-7.29 3.84,-13.49 11.49,-18.6 7.64,-5.11 18.04,-7.65 31.19,-7.65 7.1,0 16.59,1.57 28.43,4.7zm60.34 57.02c-0.07,1.35 -0.1,2.33 -0.1,2.92 0,6.59 2.2,12.17 6.59,16.73 4.39,4.59 10.29,6.87 17.75,6.87 7.61,0 15.12,-2.43 22.51,-7.25 1.52,-0.97 2.58,-1.45 3.2,-1.45 1.64,0 2.48,0.64 2.48,1.94 0,1.03 -1.89,2.83 -5.68,5.47 -3.77,2.64 -8.42,4.63 -13.9,5.96 -5.49,1.36 -11.13,2.02 -17,2.02 -12.84,0 -22.91,-2.9 -30.2,-8.67 -7.26,-5.8 -10.91,-12.62 -10.91,-20.46 0,-9.43 4.17,-17.35 12.53,-23.73 8.35,-6.39 18.75,-9.58 31.23,-9.58 11.72,0 20.65,2.9 26.78,8.72 6.16,5.82 9.22,11.34 9.22,16.61 0,1.66 -0.61,2.66 -1.8,2.99 -1.19,0.34 -5.07,0.48 -11.61,0.48l-41.07 0.43zm0.57 -5.13c9.33,0.09 14.71,0.14 16.17,0.14 7.1,0 11.46,-0.38 13.07,-1.12 1.61,-0.73 2.42,-2.26 2.42,-4.51 0,-3.79 -1.49,-7.17 -4.45,-10.09 -2.98,-2.92 -6.48,-4.38 -10.59,-4.38 -9.71,0 -15.23,6.66 -16.62,19.96zm67.07 7.34c0,-8.76 4.07,-16.25 12.21,-22.5 8.12,-6.24 18.35,-9.36 30.65,-9.36 8.06,0 15.16,1.42 21.3,4.31 6.16,2.87 9.23,6.24 9.23,10.17 0,2.33 -0.95,4.16 -2.78,5.49 -1.87,1.33 -4.23,1.99 -7.07,1.99 -5.42,0 -9.3,-2.89 -11.61,-8.69 -1.26,-3.19 -2.64,-5.44 -4.17,-6.79 -1.58,-1.36 -3.85,-2.04 -6.81,-2.04 -5.16,0 -9.04,1.92 -11.64,5.74 -2.62,3.85 -3.94,9.6 -3.94,17.27 0,8.81 2.17,15.85 6.45,21.12 4.29,5.25 9.84,7.89 16.66,7.89 9.1,0 15.48,-4.04 19.23,-12.14 1.18,-2.54 2.61,-3.82 4.22,-3.82 1.77,0 2.67,0.69 2.67,2.09 0,4.06 -2.8,8.46 -8.39,13.18 -5.58,4.73 -13.94,7.11 -25.04,7.11 -12.16,0 -22.06,-2.92 -29.72,-8.77 -7.64,-5.85 -11.45,-13.26 -11.45,-22.24zm118.54 -30.29c0.32,4.77 0.48,11.25 0.48,19.5 0,12.5 0.16,20.5 0.48,24 0.3,3.49 1.56,6.13 3.76,7.89 2.15,1.76 4.63,2.64 7.42,2.64 3.29,0 6.62,-0.91 10,-2.71 3.38,-1.81 5.87,-4.18 7.48,-7.08 1.61,-2.92 2.42,-7.7 2.42,-14.33l0.19 -15.35c0,-4.09 -0.3,-6.77 -0.91,-8.06 -0.57,-1.31 -2.6,-1.99 -6.03,-2.09 -3.77,-0.14 -5.64,-0.86 -5.64,-2.16 0,-0.81 0.45,-1.31 1.36,-1.52 0.9,-0.22 3.32,-0.31 7.19,-0.31 8.72,0 16.84,-0.14 24.36,-0.42 0.27,1.8 0.39,11.71 0.39,29.72 0,14.46 0.2,22.35 0.59,23.68 0.35,1.33 2.42,2.09 6.15,2.32 2.23,0.19 3.33,0.86 3.33,2 0,1.33 -1.25,2 -3.78,2 -0.51,0 -1.29,-0.02 -2.35,-0.05 -1.77,-0.07 -3.85,-0.1 -6.23,-0.1 -8.39,0 -13,0.02 -13.91,0.07 -1,0.05 -1.83,0.08 -2.52,0.08 -1.22,0 -1.96,-0.14 -2.21,-0.46 -0.3,-0.3 -0.45,-1.21 -0.45,-2.71 0,-2.44 0.22,-4.92 0.68,-7.41 -4.36,3.92 -8.94,6.84 -13.74,8.79 -4.84,1.94 -9.91,2.92 -15.2,2.92 -16.07,0 -24.1,-6.63 -24.1,-19.86l0 -21.46c0,-7.41 -0.35,-11.76 -1.1,-13.02 -0.71,-1.28 -2.65,-2.07 -5.74,-2.4 -2.8,-0.28 -4.2,-0.88 -4.2,-1.83 0,-1.26 1.23,-1.88 3.68,-1.88 16.91,0 26.3,-0.14 28.16,-0.42zm105.89 12.56c3.13,-4.68 6.74,-8.2 10.84,-10.5 4.1,-2.33 8.65,-3.49 13.68,-3.49 4.78,0 8.58,1.02 11.46,3.06 2.87,2.02 4.28,4.59 4.28,7.63 0,2.42 -1.02,4.46 -3.07,6.15 -2.06,1.69 -4.54,2.55 -7.5,2.55 -2.2,0 -4.04,-0.43 -5.49,-1.26 -1.46,-0.83 -3.01,-2.3 -4.65,-4.42 -2.23,-3.07 -4.22,-4.59 -5.9,-4.59 -2.33,0 -4.94,1.74 -7.87,5.23 -2.93,3.48 -4.43,10.24 -4.43,20.27 0,12.66 0.58,19.72 1.74,21.15 1.2,1.4 3.78,2.11 7.74,2.11 3.48,0 5.23,0.69 5.23,2.07 0,1.28 -1.71,1.92 -5.13,1.92 -1.87,0 -4.65,-0.12 -8.23,-0.38 -3.3,-0.22 -6.39,-0.33 -9.3,-0.33 -6.26,0 -12.45,0.16 -18.58,0.5 -2.58,0.14 -4.09,0.21 -4.54,0.21 -2.65,0 -3.97,-0.71 -3.97,-2.14 0,-1.23 1.55,-1.9 4.65,-2 3.03,-0.1 5.13,-0.61 6.36,-1.57 1.19,-0.95 1.77,-3.04 1.77,-6.25l0.38 -17.43c0,-3.52 -0.19,-7.92 -0.59,-13.16 -0.35,-5.27 -0.71,-8.38 -1.03,-9.39 -0.32,-1 -1.13,-1.9 -2.42,-2.68 -1.29,-0.81 -3.07,-1.26 -5.26,-1.4 -2.29,-0.19 -3.72,-0.41 -4.32,-0.67 -0.61,-0.24 -0.9,-0.76 -0.9,-1.55 0,-1.23 1.58,-1.88 4.73,-1.92 5.81,-0.05 15.72,-0.62 29.66,-1.71l0.64 13.99zm72.34 15.52c-0.07,1.35 -0.1,2.33 -0.1,2.92 0,6.59 2.2,12.17 6.59,16.73 4.39,4.59 10.3,6.87 17.75,6.87 7.61,0 15.12,-2.43 22.52,-7.25 1.52,-0.97 2.58,-1.45 3.19,-1.45 1.64,0 2.48,0.64 2.48,1.94 0,1.03 -1.89,2.83 -5.67,5.47 -3.77,2.64 -8.42,4.63 -13.91,5.96 -5.49,1.36 -11.13,2.02 -17,2.02 -12.84,0 -22.91,-2.9 -30.2,-8.67 -7.26,-5.8 -10.91,-12.62 -10.91,-20.46 0,-9.43 4.17,-17.35 12.52,-23.73 8.35,-6.39 18.75,-9.58 31.23,-9.58 11.72,0 20.65,2.9 26.78,8.72 6.17,5.82 9.23,11.34 9.23,16.61 0,1.66 -0.61,2.66 -1.81,2.99 -1.19,0.34 -5.06,0.48 -11.61,0.48l-41.07 0.43zm0.57 -5.13c9.33,0.09 14.72,0.14 16.17,0.14 7.1,0 11.46,-0.38 13.07,-1.12 1.61,-0.73 2.42,-2.26 2.42,-4.51 0,-3.79 -1.49,-7.17 -4.45,-10.09 -2.97,-2.92 -6.48,-4.38 -10.59,-4.38 -9.71,0 -15.22,6.66 -16.62,19.96zm95.34 28.46c0,2.71 -1.29,4.99 -3.87,6.89 -2.58,1.9 -5.68,2.85 -9.32,2.85 -3.62,0 -6.68,-0.95 -9.26,-2.85 -2.58,-1.9 -3.88,-4.18 -3.88,-6.89 0,-2.64 1.29,-4.89 3.88,-6.79 2.58,-1.9 5.64,-2.85 9.26,-2.85 3.64,0 6.74,0.95 9.32,2.85 2.58,1.9 3.87,4.16 3.87,6.79zm85.25 -46.52c7.45,-4.78 13.93,-7.18 19.52,-7.18 3.71,0 6.74,0.79 9.12,2.38 2.36,1.6 3.55,3.4 3.55,5.46 0,1.72 -0.81,3.28 -2.45,4.71 -1.65,1.43 -3.88,2.14 -6.71,2.14 -3.97,0 -6.85,-1.59 -8.62,-4.8 -1.19,-2.11 -2.38,-3.18 -3.51,-3.18 -1.33,0 -3.84,1.11 -7.52,3.35 3.33,3.7 5,7.72 5,12 0,4.34 -1.72,8.36 -5.11,12.02 -3.39,3.64 -7.51,6.22 -12.32,7.77 -4.81,1.54 -11.68,2.61 -20.55,3.21 -7.61,0.51 -12.23,1.38 -13.87,2.57 -1.72,1.25 -2.55,2.66 -2.55,4.18 0,1.86 1.74,3.07 5.2,3.61 3.41,0.57 12.87,1 28.33,1.33 23.72,0.54 35.59,6.27 35.59,17.15 0,7.41 -4.42,13.54 -13.29,18.43 -8.87,4.87 -22.3,7.32 -40.2,7.32 -13.52,0 -23.26,-1.45 -29.26,-4.33 -6.01,-2.9 -9,-6.3 -9,-10.17 0,-4.11 2.45,-7.6 7.32,-10.43 4.87,-2.85 12.2,-5.08 21.94,-6.7 -7.42,-0.55 -13.01,-1.76 -16.71,-3.59 -3.71,-1.82 -5.59,-4.32 -5.59,-7.48 0,-3.33 1.74,-6.13 5.2,-8.41 3.45,-2.28 8.62,-4.02 15.46,-5.22 -7.17,-1.62 -12.59,-4 -16.19,-7.11 -3.62,-3.11 -5.43,-7.01 -5.43,-11.64 0,-6.75 3.65,-12.4 10.97,-16.99 7.32,-4.58 16.35,-6.87 27.07,-6.87 5.09,0 9.71,0.52 13.8,1.59 4.09,1.07 7.71,2.71 10.81,4.87zm-40.01 14.58c0,6.01 1.39,10.64 4.14,13.95 2.77,3.28 6.03,4.92 9.84,4.92 3.94,0 6.87,-1.4 8.84,-4.22 1.97,-2.83 2.93,-7.06 2.93,-12.69 0,-5.96 -1.2,-10.65 -3.55,-14.04 -2.38,-3.4 -5.45,-5.11 -9.19,-5.11 -3.78,0 -6.9,1.55 -9.35,4.61 -2.42,3.09 -3.65,7.27 -3.65,12.59zm-10.06 61.63c0,3.16 2.12,5.92 6.38,8.29 4.3,2.35 10.33,3.53 18.11,3.53 9.42,0 17.23,-1.57 23.46,-4.72 6.22,-3.16 9.36,-6.89 9.36,-11.2 0,-3.49 -2.49,-6.05 -7.49,-7.69 -5,-1.64 -11.41,-2.47 -19.26,-2.47 -9.29,0 -16.71,1.35 -22.27,4.06 -5.52,2.71 -8.29,6.1 -8.29,10.19zm122.63 -106.13c0,2.75 -1.35,5.11 -4.04,7.08 -2.69,1.97 -5.87,2.97 -9.62,2.97 -3.77,0 -6.99,-1 -9.66,-2.97 -2.65,-1.98 -3.97,-4.33 -3.97,-7.08 0,-2.8 1.32,-5.15 3.97,-7.13 2.67,-1.94 5.9,-2.92 9.66,-2.92 3.75,0 6.94,0.97 9.62,2.92 2.68,1.98 4.04,4.33 4.04,7.13zm1.35 23.45c0.26,6.51 0.39,18.11 0.39,34.81l-0.3 14.99c0,3.02 0.68,5.04 2.04,6.06 1.38,1.02 3.61,1.69 6.67,2.02 3.55,0.34 5.32,1.07 5.32,2.24 0,1.26 -1.4,1.9 -4.17,1.9 -1.32,0 -3.61,-0.07 -6.9,-0.21 -6.94,-0.34 -13.8,-0.5 -20.61,-0.5 -3.36,0 -6.75,0.14 -10.23,0.4 -2.06,0.22 -3.48,0.31 -4.26,0.31 -2.77,0 -4.16,-0.61 -4.16,-1.86 0,-1.19 1.84,-1.9 5.51,-2.14 4.88,-0.33 7.59,-1.52 8.17,-3.59 0.55,-2.06 0.84,-6.24 0.84,-12.54 0,-8.18 -0.16,-15.68 -0.51,-22.53 -0.35,-6.84 -1,-10.74 -1.94,-11.71 -0.96,-0.97 -3.41,-1.62 -7.42,-1.95 -3.09,-0.24 -4.65,-0.9 -4.65,-2.04 0,-1.11 1.58,-1.76 4.74,-1.94l1.97 -0.14 29.49 -1.57zm57.82 -33.79l0.29 58.35c0.06,18.63 0.71,28.82 1.97,30.53 1.25,1.71 3.78,2.64 7.52,2.77 4.39,0.14 6.59,0.79 6.59,1.98 0,1.45 -1.37,2.16 -4.08,2.16 -0.73,0 -1.83,-0.04 -3.29,-0.14 -6.1,-0.38 -12.04,-0.57 -17.75,-0.57 -9.33,0 -16.19,0.19 -20.68,0.55 -1.26,0.12 -2.39,0.16 -3.38,0.16 -2.85,0 -4.26,-0.61 -4.26,-1.86 0,-1.19 1.61,-1.85 4.8,-1.99 3.49,-0.15 6.01,-0.59 7.63,-1.4 1.61,-0.79 2.57,-1.88 2.93,-3.31 0.32,-1.42 0.51,-4.73 0.51,-9.93l-0.39 -27.4 0.29 -21.74c0,-9 -0.57,-14.46 -1.73,-16.4 -1.2,-1.92 -4.65,-3.25 -10.39,-3.94 -3.45,-0.38 -5.2,-1.09 -5.2,-2.2 0,-0.69 0.39,-1.17 1.2,-1.4 0.77,-0.26 2.71,-0.47 5.81,-0.67 12.93,-0.78 23.49,-1.97 31.62,-3.56zm52.11 63.44c-0.07,1.35 -0.1,2.33 -0.1,2.92 0,6.59 2.2,12.17 6.59,16.73 4.39,4.59 10.29,6.87 17.74,6.87 7.61,0 15.12,-2.43 22.51,-7.25 1.52,-0.97 2.58,-1.45 3.2,-1.45 1.64,0 2.48,0.64 2.48,1.94 0,1.03 -1.89,2.83 -5.68,5.47 -3.77,2.64 -8.42,4.63 -13.9,5.96 -5.49,1.36 -11.14,2.02 -17.01,2.02 -12.84,0 -22.91,-2.9 -30.2,-8.67 -7.26,-5.8 -10.91,-12.62 -10.91,-20.46 0,-9.43 4.16,-17.35 12.52,-23.73 8.35,-6.39 18.75,-9.58 31.23,-9.58 11.72,0 20.65,2.9 26.78,8.72 6.16,5.82 9.22,11.34 9.22,16.61 0,1.66 -0.62,2.66 -1.81,2.99 -1.19,0.34 -5.07,0.48 -11.61,0.48l-41.07 0.43zm0.57 -5.13c9.33,0.09 14.71,0.14 16.16,0.14 7.1,0 11.46,-0.38 13.07,-1.12 1.61,-0.73 2.42,-2.26 2.42,-4.51 0,-3.79 -1.49,-7.17 -4.45,-10.09 -2.98,-2.92 -6.48,-4.38 -10.59,-4.38 -9.71,0 -15.23,6.66 -16.62,19.96z"/>
    <g>
     <polygon class="fil6 str2" points="3635.29,1236.18 4259.4,793.38 4861.62,1250.67 4237.51,1693.47 "/>
     <polygon class="fil7 str7" points="3716.02,1237.36 4258.26,852.64 4780.89,1249.5 4238.65,1634.21 "/>
     <polygon class="fil8 str8" points="3796.76,1238.54 4257.12,911.91 4700.15,1248.32 4239.79,1574.94 "/>
     <polygon class="fil9 str9" points="3877.5,1239.71 4255.99,971.18 4619.41,1247.14 4240.92,1515.67 "/>
     <polygon class="fil10 str10" points="3958.24,1240.89 4254.85,1030.45 4538.67,1245.97 4242.07,1456.41 "/>
    </g>
    <polygon class="fil11 str11" points="4038.98,1242.06 4146.34,1165.89 4253.71,1089.72 4355.82,1167.26 4457.93,1244.79 4350.57,1320.96 4243.2,1397.14 4141.09,1319.6 "/>
   </g>
   <polygon class="fil2 str11" points="3.4,3.4 5149.61,3.4 5149.61,2569.43 3.4,2569.43 "/>
  </g>
 </g>
</svg>
